<mxfile host="app.diagrams.net" modified="2023-05-20T10:24:28.005Z" agent="Mozilla/5.0 (Windows NT 10.0; Win64; x64) AppleWebKit/537.36 (KHTML, like Gecko) Chrome/113.0.0.0 Safari/537.36" etag="2Dtf4AudTFnd4CjwHsYO" version="21.3.2" type="device" pages="3">
  <diagram name="Trang-1" id="6FtUAjifn78EaTAAuiET">
    <mxGraphModel dx="6814" dy="3333" grid="1" gridSize="10" guides="1" tooltips="1" connect="1" arrows="1" fold="1" page="1" pageScale="1" pageWidth="827" pageHeight="1169" background="#FFFFFF" math="0" shadow="0">
      <root>
        <mxCell id="0" />
        <mxCell id="1" parent="0" />
        <mxCell id="lCYEwEg9oiP1OCXS0-rL-14" value="Graph" style="swimlane;fontStyle=1;align=center;verticalAlign=top;childLayout=stackLayout;horizontal=1;startSize=26;horizontalStack=0;resizeParent=1;resizeParentMax=0;resizeLast=0;collapsible=1;marginBottom=0;whiteSpace=wrap;html=1;fillColor=#f8cecc;strokeColor=#b85450;" parent="1" vertex="1">
          <mxGeometry x="-760" y="120" width="370" height="788" as="geometry" />
        </mxCell>
        <mxCell id="lCYEwEg9oiP1OCXS0-rL-15" value="-&amp;nbsp;adjacencyList:&amp;nbsp;Map&amp;lt;Vertex, List&amp;lt;Edge&amp;gt;&amp;gt;" style="text;strokeColor=none;fillColor=none;align=left;verticalAlign=top;spacingLeft=4;spacingRight=4;overflow=hidden;rotatable=0;points=[[0,0.5],[1,0.5]];portConstraint=eastwest;whiteSpace=wrap;html=1;" parent="lCYEwEg9oiP1OCXS0-rL-14" vertex="1">
          <mxGeometry y="26" width="370" height="26" as="geometry" />
        </mxCell>
        <mxCell id="izIf3tRvV_jU_N7sfZag-2" value="- adjacencyMatrix: int[][]" style="text;strokeColor=none;fillColor=none;align=left;verticalAlign=top;spacingLeft=4;spacingRight=4;overflow=hidden;rotatable=0;points=[[0,0.5],[1,0.5]];portConstraint=eastwest;whiteSpace=wrap;html=1;" parent="lCYEwEg9oiP1OCXS0-rL-14" vertex="1">
          <mxGeometry y="52" width="370" height="26" as="geometry" />
        </mxCell>
        <mxCell id="WuYdYey0Z6FS718gPj1q-47" value="- path: PathFindingStrategy" style="text;strokeColor=none;fillColor=none;align=left;verticalAlign=top;spacingLeft=4;spacingRight=4;overflow=hidden;rotatable=0;points=[[0,0.5],[1,0.5]];portConstraint=eastwest;whiteSpace=wrap;html=1;" parent="lCYEwEg9oiP1OCXS0-rL-14" vertex="1">
          <mxGeometry y="78" width="370" height="26" as="geometry" />
        </mxCell>
        <mxCell id="tL8rUceiAdDFCAcT1S33-37" value="- startVertex: Vertex" style="text;strokeColor=none;fillColor=none;align=left;verticalAlign=top;spacingLeft=4;spacingRight=4;overflow=hidden;rotatable=0;points=[[0,0.5],[1,0.5]];portConstraint=eastwest;whiteSpace=wrap;html=1;" vertex="1" parent="lCYEwEg9oiP1OCXS0-rL-14">
          <mxGeometry y="104" width="370" height="26" as="geometry" />
        </mxCell>
        <mxCell id="tL8rUceiAdDFCAcT1S33-38" value="- endVertex: Vertex" style="text;strokeColor=none;fillColor=none;align=left;verticalAlign=top;spacingLeft=4;spacingRight=4;overflow=hidden;rotatable=0;points=[[0,0.5],[1,0.5]];portConstraint=eastwest;whiteSpace=wrap;html=1;" vertex="1" parent="lCYEwEg9oiP1OCXS0-rL-14">
          <mxGeometry y="130" width="370" height="26" as="geometry" />
        </mxCell>
        <mxCell id="lCYEwEg9oiP1OCXS0-rL-16" value="" style="line;strokeWidth=1;fillColor=none;align=left;verticalAlign=middle;spacingTop=-1;spacingLeft=3;spacingRight=3;rotatable=0;labelPosition=right;points=[];portConstraint=eastwest;strokeColor=inherit;" parent="lCYEwEg9oiP1OCXS0-rL-14" vertex="1">
          <mxGeometry y="156" width="370" height="8" as="geometry" />
        </mxCell>
        <mxCell id="izIf3tRvV_jU_N7sfZag-3" value="- Graph()" style="text;strokeColor=none;fillColor=none;align=left;verticalAlign=top;spacingLeft=4;spacingRight=4;overflow=hidden;rotatable=0;points=[[0,0.5],[1,0.5]];portConstraint=eastwest;whiteSpace=wrap;html=1;" parent="lCYEwEg9oiP1OCXS0-rL-14" vertex="1">
          <mxGeometry y="164" width="370" height="26" as="geometry" />
        </mxCell>
        <mxCell id="WuYdYey0Z6FS718gPj1q-49" value="+ getEdges(Vertex vertex): List&amp;lt;Edge&amp;gt;" style="text;strokeColor=none;fillColor=none;align=left;verticalAlign=top;spacingLeft=4;spacingRight=4;overflow=hidden;rotatable=0;points=[[0,0.5],[1,0.5]];portConstraint=eastwest;whiteSpace=wrap;html=1;" parent="lCYEwEg9oiP1OCXS0-rL-14" vertex="1">
          <mxGeometry y="190" width="370" height="26" as="geometry" />
        </mxCell>
        <mxCell id="WuYdYey0Z6FS718gPj1q-50" value="+&amp;nbsp;getAdjacencyList&lt;span style=&quot;background-color: initial;&quot;&gt;(): Map&amp;lt;Vertex, List&amp;lt;Edge&amp;gt;&amp;gt;&lt;/span&gt;" style="text;strokeColor=none;fillColor=none;align=left;verticalAlign=top;spacingLeft=4;spacingRight=4;overflow=hidden;rotatable=0;points=[[0,0.5],[1,0.5]];portConstraint=eastwest;whiteSpace=wrap;html=1;" parent="lCYEwEg9oiP1OCXS0-rL-14" vertex="1">
          <mxGeometry y="216" width="370" height="26" as="geometry" />
        </mxCell>
        <mxCell id="lCYEwEg9oiP1OCXS0-rL-17" value="+ addVertex(Vertex vertex): void" style="text;strokeColor=none;fillColor=none;align=left;verticalAlign=top;spacingLeft=4;spacingRight=4;overflow=hidden;rotatable=0;points=[[0,0.5],[1,0.5]];portConstraint=eastwest;whiteSpace=wrap;html=1;" parent="lCYEwEg9oiP1OCXS0-rL-14" vertex="1">
          <mxGeometry y="242" width="370" height="26" as="geometry" />
        </mxCell>
        <mxCell id="WuYdYey0Z6FS718gPj1q-48" value="+ removeVertex(Vertex vertex): void" style="text;strokeColor=none;fillColor=none;align=left;verticalAlign=top;spacingLeft=4;spacingRight=4;overflow=hidden;rotatable=0;points=[[0,0.5],[1,0.5]];portConstraint=eastwest;whiteSpace=wrap;html=1;" parent="lCYEwEg9oiP1OCXS0-rL-14" vertex="1">
          <mxGeometry y="268" width="370" height="26" as="geometry" />
        </mxCell>
        <mxCell id="WuYdYey0Z6FS718gPj1q-61" value="+&amp;nbsp;renameVertex&lt;span style=&quot;background-color: initial;&quot;&gt;(Point currentClick): void&lt;/span&gt;" style="text;strokeColor=none;fillColor=none;align=left;verticalAlign=top;spacingLeft=4;spacingRight=4;overflow=hidden;rotatable=0;points=[[0,0.5],[1,0.5]];portConstraint=eastwest;whiteSpace=wrap;html=1;" parent="lCYEwEg9oiP1OCXS0-rL-14" vertex="1">
          <mxGeometry y="294" width="370" height="26" as="geometry" />
        </mxCell>
        <mxCell id="WuYdYey0Z6FS718gPj1q-51" value="+&amp;nbsp;getVertices&lt;span style=&quot;background-color: initial;&quot;&gt;(): ArrayList&amp;lt;Vertex&amp;gt;&lt;/span&gt;" style="text;strokeColor=none;fillColor=none;align=left;verticalAlign=top;spacingLeft=4;spacingRight=4;overflow=hidden;rotatable=0;points=[[0,0.5],[1,0.5]];portConstraint=eastwest;whiteSpace=wrap;html=1;" parent="lCYEwEg9oiP1OCXS0-rL-14" vertex="1">
          <mxGeometry y="320" width="370" height="26" as="geometry" />
        </mxCell>
        <mxCell id="WuYdYey0Z6FS718gPj1q-53" value="+&amp;nbsp;getEdges&lt;span style=&quot;background-color: initial;&quot;&gt;(): int[][]&lt;/span&gt;" style="text;strokeColor=none;fillColor=none;align=left;verticalAlign=top;spacingLeft=4;spacingRight=4;overflow=hidden;rotatable=0;points=[[0,0.5],[1,0.5]];portConstraint=eastwest;whiteSpace=wrap;html=1;" parent="lCYEwEg9oiP1OCXS0-rL-14" vertex="1">
          <mxGeometry y="346" width="370" height="26" as="geometry" />
        </mxCell>
        <mxCell id="izIf3tRvV_jU_N7sfZag-16" value="+ setPath(): void" style="text;strokeColor=none;fillColor=none;align=left;verticalAlign=top;spacingLeft=4;spacingRight=4;overflow=hidden;rotatable=0;points=[[0,0.5],[1,0.5]];portConstraint=eastwest;whiteSpace=wrap;html=1;" parent="lCYEwEg9oiP1OCXS0-rL-14" vertex="1">
          <mxGeometry y="372" width="370" height="26" as="geometry" />
        </mxCell>
        <mxCell id="WuYdYey0Z6FS718gPj1q-52" value="+&amp;nbsp;countEdges&lt;span style=&quot;background-color: initial;&quot;&gt;(): int&lt;/span&gt;" style="text;strokeColor=none;fillColor=none;align=left;verticalAlign=top;spacingLeft=4;spacingRight=4;overflow=hidden;rotatable=0;points=[[0,0.5],[1,0.5]];portConstraint=eastwest;whiteSpace=wrap;html=1;" parent="lCYEwEg9oiP1OCXS0-rL-14" vertex="1">
          <mxGeometry y="398" width="370" height="26" as="geometry" />
        </mxCell>
        <mxCell id="WuYdYey0Z6FS718gPj1q-56" value="+&amp;nbsp;removeAll&lt;span style=&quot;background-color: initial;&quot;&gt;(): void&lt;/span&gt;" style="text;strokeColor=none;fillColor=none;align=left;verticalAlign=top;spacingLeft=4;spacingRight=4;overflow=hidden;rotatable=0;points=[[0,0.5],[1,0.5]];portConstraint=eastwest;whiteSpace=wrap;html=1;" parent="lCYEwEg9oiP1OCXS0-rL-14" vertex="1">
          <mxGeometry y="424" width="370" height="26" as="geometry" />
        </mxCell>
        <mxCell id="WuYdYey0Z6FS718gPj1q-59" value="+&amp;nbsp;handleAddVertex&lt;span style=&quot;background-color: initial;&quot;&gt;(Point location): void&lt;/span&gt;" style="text;strokeColor=none;fillColor=none;align=left;verticalAlign=top;spacingLeft=4;spacingRight=4;overflow=hidden;rotatable=0;points=[[0,0.5],[1,0.5]];portConstraint=eastwest;whiteSpace=wrap;html=1;" parent="lCYEwEg9oiP1OCXS0-rL-14" vertex="1">
          <mxGeometry y="450" width="370" height="26" as="geometry" />
        </mxCell>
        <mxCell id="WuYdYey0Z6FS718gPj1q-60" value="+&amp;nbsp;handleRemoveVertex&lt;span style=&quot;background-color: initial;&quot;&gt;(Point location): void&lt;/span&gt;" style="text;strokeColor=none;fillColor=none;align=left;verticalAlign=top;spacingLeft=4;spacingRight=4;overflow=hidden;rotatable=0;points=[[0,0.5],[1,0.5]];portConstraint=eastwest;whiteSpace=wrap;html=1;" parent="lCYEwEg9oiP1OCXS0-rL-14" vertex="1">
          <mxGeometry y="476" width="370" height="26" as="geometry" />
        </mxCell>
        <mxCell id="WuYdYey0Z6FS718gPj1q-62" value="+&amp;nbsp;handleAddEdge&lt;span style=&quot;background-color: initial;&quot;&gt;(Point currentClick, Vertex sourceVertex): void&lt;/span&gt;" style="text;strokeColor=none;fillColor=none;align=left;verticalAlign=top;spacingLeft=4;spacingRight=4;overflow=hidden;rotatable=0;points=[[0,0.5],[1,0.5]];portConstraint=eastwest;whiteSpace=wrap;html=1;" parent="lCYEwEg9oiP1OCXS0-rL-14" vertex="1">
          <mxGeometry y="502" width="370" height="26" as="geometry" />
        </mxCell>
        <mxCell id="WuYdYey0Z6FS718gPj1q-63" value="+&amp;nbsp;findVertex&lt;span style=&quot;background-color: initial;&quot;&gt;(Vertex that): Vertex&lt;/span&gt;" style="text;strokeColor=none;fillColor=none;align=left;verticalAlign=top;spacingLeft=4;spacingRight=4;overflow=hidden;rotatable=0;points=[[0,0.5],[1,0.5]];portConstraint=eastwest;whiteSpace=wrap;html=1;" parent="lCYEwEg9oiP1OCXS0-rL-14" vertex="1">
          <mxGeometry y="528" width="370" height="26" as="geometry" />
        </mxCell>
        <mxCell id="WuYdYey0Z6FS718gPj1q-64" value="+&amp;nbsp;findVertex&lt;span style=&quot;background-color: initial;&quot;&gt;(Point that): Vertex&lt;/span&gt;" style="text;strokeColor=none;fillColor=none;align=left;verticalAlign=top;spacingLeft=4;spacingRight=4;overflow=hidden;rotatable=0;points=[[0,0.5],[1,0.5]];portConstraint=eastwest;whiteSpace=wrap;html=1;" parent="lCYEwEg9oiP1OCXS0-rL-14" vertex="1">
          <mxGeometry y="554" width="370" height="26" as="geometry" />
        </mxCell>
        <mxCell id="WuYdYey0Z6FS718gPj1q-65" value="+ drawPath(String[][] res): void" style="text;strokeColor=none;fillColor=none;align=left;verticalAlign=top;spacingLeft=4;spacingRight=4;overflow=hidden;rotatable=0;points=[[0,0.5],[1,0.5]];portConstraint=eastwest;whiteSpace=wrap;html=1;" parent="lCYEwEg9oiP1OCXS0-rL-14" vertex="1">
          <mxGeometry y="580" width="370" height="26" as="geometry" />
        </mxCell>
        <mxCell id="tL8rUceiAdDFCAcT1S33-39" value="+ isConnected(): boolean" style="text;strokeColor=none;fillColor=none;align=left;verticalAlign=top;spacingLeft=4;spacingRight=4;overflow=hidden;rotatable=0;points=[[0,0.5],[1,0.5]];portConstraint=eastwest;whiteSpace=wrap;html=1;" vertex="1" parent="lCYEwEg9oiP1OCXS0-rL-14">
          <mxGeometry y="606" width="370" height="26" as="geometry" />
        </mxCell>
        <mxCell id="tL8rUceiAdDFCAcT1S33-40" value="+ bfs(int vertex): ArrayList&amp;lt;Integer&amp;gt;" style="text;strokeColor=none;fillColor=none;align=left;verticalAlign=top;spacingLeft=4;spacingRight=4;overflow=hidden;rotatable=0;points=[[0,0.5],[1,0.5]];portConstraint=eastwest;whiteSpace=wrap;html=1;" vertex="1" parent="lCYEwEg9oiP1OCXS0-rL-14">
          <mxGeometry y="632" width="370" height="26" as="geometry" />
        </mxCell>
        <mxCell id="tL8rUceiAdDFCAcT1S33-41" value="+ deg(int vertex): int" style="text;strokeColor=none;fillColor=none;align=left;verticalAlign=top;spacingLeft=4;spacingRight=4;overflow=hidden;rotatable=0;points=[[0,0.5],[1,0.5]];portConstraint=eastwest;whiteSpace=wrap;html=1;" vertex="1" parent="lCYEwEg9oiP1OCXS0-rL-14">
          <mxGeometry y="658" width="370" height="26" as="geometry" />
        </mxCell>
        <mxCell id="tL8rUceiAdDFCAcT1S33-43" value="+ getEdges(ArrayList&amp;lt;Integer&amp;gt; nodeToGetEdge&lt;span style=&quot;background-color: initial;&quot;&gt;): int[]&lt;/span&gt;" style="text;strokeColor=none;fillColor=none;align=left;verticalAlign=top;spacingLeft=4;spacingRight=4;overflow=hidden;rotatable=0;points=[[0,0.5],[1,0.5]];portConstraint=eastwest;whiteSpace=wrap;html=1;" vertex="1" parent="lCYEwEg9oiP1OCXS0-rL-14">
          <mxGeometry y="684" width="370" height="26" as="geometry" />
        </mxCell>
        <mxCell id="WuYdYey0Z6FS718gPj1q-55" value="+&amp;nbsp;addEdge&lt;span style=&quot;background-color: initial;&quot;&gt;(Edge edge): void&lt;/span&gt;" style="text;strokeColor=none;fillColor=none;align=left;verticalAlign=top;spacingLeft=4;spacingRight=4;overflow=hidden;rotatable=0;points=[[0,0.5],[1,0.5]];portConstraint=eastwest;whiteSpace=wrap;html=1;" parent="lCYEwEg9oiP1OCXS0-rL-14" vertex="1">
          <mxGeometry y="710" width="370" height="26" as="geometry" />
        </mxCell>
        <mxCell id="tL8rUceiAdDFCAcT1S33-44" value="+ countEdges(ArrayList&amp;lt;Integer&amp;gt; nodeToGetEdge&lt;span style=&quot;background-color: initial;&quot;&gt;): int&lt;/span&gt;" style="text;strokeColor=none;fillColor=none;align=left;verticalAlign=top;spacingLeft=4;spacingRight=4;overflow=hidden;rotatable=0;points=[[0,0.5],[1,0.5]];portConstraint=eastwest;whiteSpace=wrap;html=1;" vertex="1" parent="lCYEwEg9oiP1OCXS0-rL-14">
          <mxGeometry y="736" width="370" height="26" as="geometry" />
        </mxCell>
        <mxCell id="tL8rUceiAdDFCAcT1S33-45" value="+ setAdjancyMatrix(&lt;span style=&quot;background-color: initial;&quot;&gt;): void&lt;/span&gt;" style="text;strokeColor=none;fillColor=none;align=left;verticalAlign=top;spacingLeft=4;spacingRight=4;overflow=hidden;rotatable=0;points=[[0,0.5],[1,0.5]];portConstraint=eastwest;whiteSpace=wrap;html=1;" vertex="1" parent="lCYEwEg9oiP1OCXS0-rL-14">
          <mxGeometry y="762" width="370" height="26" as="geometry" />
        </mxCell>
        <mxCell id="lCYEwEg9oiP1OCXS0-rL-22" value="Vertex" style="swimlane;fontStyle=1;align=center;verticalAlign=top;childLayout=stackLayout;horizontal=1;startSize=26;horizontalStack=0;resizeParent=1;resizeParentMax=0;resizeLast=0;collapsible=1;marginBottom=0;whiteSpace=wrap;html=1;fillColor=#f8cecc;strokeColor=#b85450;" parent="1" vertex="1">
          <mxGeometry x="-250" y="1000" width="200" height="190" as="geometry" />
        </mxCell>
        <mxCell id="lCYEwEg9oiP1OCXS0-rL-23" value="- name: String" style="text;strokeColor=none;fillColor=none;align=left;verticalAlign=top;spacingLeft=4;spacingRight=4;overflow=hidden;rotatable=0;points=[[0,0.5],[1,0.5]];portConstraint=eastwest;whiteSpace=wrap;html=1;" parent="lCYEwEg9oiP1OCXS0-rL-22" vertex="1">
          <mxGeometry y="26" width="200" height="26" as="geometry" />
        </mxCell>
        <mxCell id="WuYdYey0Z6FS718gPj1q-39" value="- location: Point" style="text;strokeColor=none;fillColor=none;align=left;verticalAlign=top;spacingLeft=4;spacingRight=4;overflow=hidden;rotatable=0;points=[[0,0.5],[1,0.5]];portConstraint=eastwest;whiteSpace=wrap;html=1;" parent="lCYEwEg9oiP1OCXS0-rL-22" vertex="1">
          <mxGeometry y="52" width="200" height="26" as="geometry" />
        </mxCell>
        <mxCell id="WuYdYey0Z6FS718gPj1q-40" value="- color: Color" style="text;strokeColor=none;fillColor=none;align=left;verticalAlign=top;spacingLeft=4;spacingRight=4;overflow=hidden;rotatable=0;points=[[0,0.5],[1,0.5]];portConstraint=eastwest;whiteSpace=wrap;html=1;" parent="lCYEwEg9oiP1OCXS0-rL-22" vertex="1">
          <mxGeometry y="78" width="200" height="26" as="geometry" />
        </mxCell>
        <mxCell id="WuYdYey0Z6FS718gPj1q-41" value="+ &amp;lt;&amp;lt;static&amp;gt;&amp;gt; final R: int" style="text;strokeColor=none;fillColor=none;align=left;verticalAlign=top;spacingLeft=4;spacingRight=4;overflow=hidden;rotatable=0;points=[[0,0.5],[1,0.5]];portConstraint=eastwest;whiteSpace=wrap;html=1;" parent="lCYEwEg9oiP1OCXS0-rL-22" vertex="1">
          <mxGeometry y="104" width="200" height="26" as="geometry" />
        </mxCell>
        <mxCell id="lCYEwEg9oiP1OCXS0-rL-24" value="" style="line;strokeWidth=1;fillColor=none;align=left;verticalAlign=middle;spacingTop=-1;spacingLeft=3;spacingRight=3;rotatable=0;labelPosition=right;points=[];portConstraint=eastwest;strokeColor=inherit;" parent="lCYEwEg9oiP1OCXS0-rL-22" vertex="1">
          <mxGeometry y="130" width="200" height="8" as="geometry" />
        </mxCell>
        <mxCell id="lCYEwEg9oiP1OCXS0-rL-25" value="+ isClickAt(Point point): boolean" style="text;strokeColor=none;fillColor=none;align=left;verticalAlign=top;spacingLeft=4;spacingRight=4;overflow=hidden;rotatable=0;points=[[0,0.5],[1,0.5]];portConstraint=eastwest;whiteSpace=wrap;html=1;" parent="lCYEwEg9oiP1OCXS0-rL-22" vertex="1">
          <mxGeometry y="138" width="200" height="26" as="geometry" />
        </mxCell>
        <mxCell id="WuYdYey0Z6FS718gPj1q-42" value="+ move(int x, int y): void" style="text;strokeColor=none;fillColor=none;align=left;verticalAlign=top;spacingLeft=4;spacingRight=4;overflow=hidden;rotatable=0;points=[[0,0.5],[1,0.5]];portConstraint=eastwest;whiteSpace=wrap;html=1;" parent="lCYEwEg9oiP1OCXS0-rL-22" vertex="1">
          <mxGeometry y="164" width="200" height="26" as="geometry" />
        </mxCell>
        <mxCell id="lCYEwEg9oiP1OCXS0-rL-26" value="Edge" style="swimlane;fontStyle=1;align=center;verticalAlign=top;childLayout=stackLayout;horizontal=1;startSize=26;horizontalStack=0;resizeParent=1;resizeParentMax=0;resizeLast=0;collapsible=1;marginBottom=0;whiteSpace=wrap;html=1;fillColor=#f8cecc;strokeColor=#b85450;" parent="1" vertex="1">
          <mxGeometry x="40" y="1039" width="160" height="112" as="geometry" />
        </mxCell>
        <mxCell id="WuYdYey0Z6FS718gPj1q-44" value="- source: Vertex" style="text;strokeColor=none;fillColor=none;align=left;verticalAlign=top;spacingLeft=4;spacingRight=4;overflow=hidden;rotatable=0;points=[[0,0.5],[1,0.5]];portConstraint=eastwest;whiteSpace=wrap;html=1;" parent="lCYEwEg9oiP1OCXS0-rL-26" vertex="1">
          <mxGeometry y="26" width="160" height="26" as="geometry" />
        </mxCell>
        <mxCell id="lCYEwEg9oiP1OCXS0-rL-27" value="- destination: Vertex" style="text;strokeColor=none;fillColor=none;align=left;verticalAlign=top;spacingLeft=4;spacingRight=4;overflow=hidden;rotatable=0;points=[[0,0.5],[1,0.5]];portConstraint=eastwest;whiteSpace=wrap;html=1;" parent="lCYEwEg9oiP1OCXS0-rL-26" vertex="1">
          <mxGeometry y="52" width="160" height="26" as="geometry" />
        </mxCell>
        <mxCell id="WuYdYey0Z6FS718gPj1q-45" value="- weight: int" style="text;strokeColor=none;fillColor=none;align=left;verticalAlign=top;spacingLeft=4;spacingRight=4;overflow=hidden;rotatable=0;points=[[0,0.5],[1,0.5]];portConstraint=eastwest;whiteSpace=wrap;html=1;" parent="lCYEwEg9oiP1OCXS0-rL-26" vertex="1">
          <mxGeometry y="78" width="160" height="26" as="geometry" />
        </mxCell>
        <mxCell id="lCYEwEg9oiP1OCXS0-rL-28" value="" style="line;strokeWidth=1;fillColor=none;align=left;verticalAlign=middle;spacingTop=-1;spacingLeft=3;spacingRight=3;rotatable=0;labelPosition=right;points=[];portConstraint=eastwest;strokeColor=inherit;" parent="lCYEwEg9oiP1OCXS0-rL-26" vertex="1">
          <mxGeometry y="104" width="160" height="8" as="geometry" />
        </mxCell>
        <mxCell id="lCYEwEg9oiP1OCXS0-rL-38" value="dispatch" style="html=1;verticalAlign=bottom;endArrow=block;edgeStyle=elbowEdgeStyle;elbow=vertical;curved=0;rounded=0;textOpacity=0;" parent="1" source="lCYEwEg9oiP1OCXS0-rL-14" target="lCYEwEg9oiP1OCXS0-rL-22" edge="1">
          <mxGeometry x="0.25" y="20" width="80" relative="1" as="geometry">
            <mxPoint x="280" y="210" as="sourcePoint" />
            <mxPoint x="360" y="210" as="targetPoint" />
            <mxPoint as="offset" />
            <Array as="points">
              <mxPoint x="-130" y="810" />
            </Array>
          </mxGeometry>
        </mxCell>
        <mxCell id="lCYEwEg9oiP1OCXS0-rL-40" value="dispatch" style="html=1;verticalAlign=bottom;endArrow=block;edgeStyle=elbowEdgeStyle;elbow=vertical;curved=0;rounded=0;textOpacity=0;entryX=0.25;entryY=0;entryDx=0;entryDy=0;" parent="1" source="lCYEwEg9oiP1OCXS0-rL-14" target="lCYEwEg9oiP1OCXS0-rL-26" edge="1">
          <mxGeometry x="0.25" y="20" width="80" relative="1" as="geometry">
            <mxPoint x="250" y="156" as="sourcePoint" />
            <mxPoint x="120" y="230" as="targetPoint" />
            <mxPoint as="offset" />
            <Array as="points">
              <mxPoint x="-480" y="660" />
              <mxPoint x="-260" y="740" />
              <mxPoint x="50" y="960" />
              <mxPoint x="180" y="800" />
              <mxPoint x="-340" y="730" />
              <mxPoint x="20" y="960" />
              <mxPoint x="-100" y="960" />
              <mxPoint x="70" y="1050" />
            </Array>
          </mxGeometry>
        </mxCell>
        <mxCell id="lCYEwEg9oiP1OCXS0-rL-43" value="GraphController" style="swimlane;fontStyle=1;align=center;verticalAlign=top;childLayout=stackLayout;horizontal=1;startSize=26;horizontalStack=0;resizeParent=1;resizeParentMax=0;resizeLast=0;collapsible=1;marginBottom=0;whiteSpace=wrap;html=1;fillColor=#f8cecc;strokeColor=#b85450;" parent="1" vertex="1">
          <mxGeometry x="-422.5" y="-500" width="245" height="376" as="geometry" />
        </mxCell>
        <mxCell id="IncMXRNsBareLpS9UFTI-39" value="- model: Graph" style="text;strokeColor=none;fillColor=none;align=left;verticalAlign=top;spacingLeft=4;spacingRight=4;overflow=hidden;rotatable=0;points=[[0,0.5],[1,0.5]];portConstraint=eastwest;whiteSpace=wrap;html=1;" parent="lCYEwEg9oiP1OCXS0-rL-43" vertex="1">
          <mxGeometry y="26" width="245" height="26" as="geometry" />
        </mxCell>
        <mxCell id="IncMXRNsBareLpS9UFTI-59" value="- view: GraphView" style="text;strokeColor=none;fillColor=none;align=left;verticalAlign=top;spacingLeft=4;spacingRight=4;overflow=hidden;rotatable=0;points=[[0,0.5],[1,0.5]];portConstraint=eastwest;whiteSpace=wrap;html=1;" parent="lCYEwEg9oiP1OCXS0-rL-43" vertex="1">
          <mxGeometry y="52" width="245" height="26" as="geometry" />
        </mxCell>
        <mxCell id="IncMXRNsBareLpS9UFTI-41" value="- observers: List&amp;lt;Observer&amp;gt;&amp;nbsp;" style="text;strokeColor=none;fillColor=none;align=left;verticalAlign=top;spacingLeft=4;spacingRight=4;overflow=hidden;rotatable=0;points=[[0,0.5],[1,0.5]];portConstraint=eastwest;whiteSpace=wrap;html=1;" parent="lCYEwEg9oiP1OCXS0-rL-43" vertex="1">
          <mxGeometry y="78" width="245" height="26" as="geometry" />
        </mxCell>
        <mxCell id="WuYdYey0Z6FS718gPj1q-57" value="- codeExcute: int&amp;nbsp;" style="text;strokeColor=none;fillColor=none;align=left;verticalAlign=top;spacingLeft=4;spacingRight=4;overflow=hidden;rotatable=0;points=[[0,0.5],[1,0.5]];portConstraint=eastwest;whiteSpace=wrap;html=1;" parent="lCYEwEg9oiP1OCXS0-rL-43" vertex="1">
          <mxGeometry y="104" width="245" height="26" as="geometry" />
        </mxCell>
        <mxCell id="lCYEwEg9oiP1OCXS0-rL-45" value="" style="line;strokeWidth=1;fillColor=none;align=left;verticalAlign=middle;spacingTop=-1;spacingLeft=3;spacingRight=3;rotatable=0;labelPosition=right;points=[];portConstraint=eastwest;strokeColor=inherit;" parent="lCYEwEg9oiP1OCXS0-rL-43" vertex="1">
          <mxGeometry y="130" width="245" height="8" as="geometry" />
        </mxCell>
        <mxCell id="IncMXRNsBareLpS9UFTI-44" value="+ GraphController()" style="text;strokeColor=none;fillColor=none;align=left;verticalAlign=top;spacingLeft=4;spacingRight=4;overflow=hidden;rotatable=0;points=[[0,0.5],[1,0.5]];portConstraint=eastwest;whiteSpace=wrap;html=1;" parent="lCYEwEg9oiP1OCXS0-rL-43" vertex="1">
          <mxGeometry y="138" width="245" height="26" as="geometry" />
        </mxCell>
        <mxCell id="IncMXRNsBareLpS9UFTI-45" value="+ renderView(): void" style="text;strokeColor=none;fillColor=none;align=left;verticalAlign=top;spacingLeft=4;spacingRight=4;overflow=hidden;rotatable=0;points=[[0,0.5],[1,0.5]];portConstraint=eastwest;whiteSpace=wrap;html=1;" parent="lCYEwEg9oiP1OCXS0-rL-43" vertex="1">
          <mxGeometry y="164" width="245" height="26" as="geometry" />
        </mxCell>
        <mxCell id="WuYdYey0Z6FS718gPj1q-58" value="+&amp;nbsp;getVertices&lt;span style=&quot;background-color: initial;&quot;&gt;(): ArrayList&amp;lt;Vertex&amp;gt;&lt;/span&gt;" style="text;strokeColor=none;fillColor=none;align=left;verticalAlign=top;spacingLeft=4;spacingRight=4;overflow=hidden;rotatable=0;points=[[0,0.5],[1,0.5]];portConstraint=eastwest;whiteSpace=wrap;html=1;" parent="lCYEwEg9oiP1OCXS0-rL-43" vertex="1">
          <mxGeometry y="190" width="245" height="26" as="geometry" />
        </mxCell>
        <mxCell id="lCYEwEg9oiP1OCXS0-rL-46" value="+ addVertex(Vertex v): void" style="text;strokeColor=none;fillColor=none;align=left;verticalAlign=top;spacingLeft=4;spacingRight=4;overflow=hidden;rotatable=0;points=[[0,0.5],[1,0.5]];portConstraint=eastwest;whiteSpace=wrap;html=1;" parent="lCYEwEg9oiP1OCXS0-rL-43" vertex="1">
          <mxGeometry y="216" width="245" height="26" as="geometry" />
        </mxCell>
        <mxCell id="yN8j2u117YADS8AMJBHa-7" value="+ removeVertex(Vertex v): void" style="text;strokeColor=none;fillColor=none;align=left;verticalAlign=top;spacingLeft=4;spacingRight=4;overflow=hidden;rotatable=0;points=[[0,0.5],[1,0.5]];portConstraint=eastwest;whiteSpace=wrap;html=1;" parent="lCYEwEg9oiP1OCXS0-rL-43" vertex="1">
          <mxGeometry y="242" width="245" height="24" as="geometry" />
        </mxCell>
        <mxCell id="yN8j2u117YADS8AMJBHa-8" value="+ addEdge(Edge&amp;nbsp;e): void" style="text;strokeColor=none;fillColor=none;align=left;verticalAlign=top;spacingLeft=4;spacingRight=4;overflow=hidden;rotatable=0;points=[[0,0.5],[1,0.5]];portConstraint=eastwest;whiteSpace=wrap;html=1;" parent="lCYEwEg9oiP1OCXS0-rL-43" vertex="1">
          <mxGeometry y="266" width="245" height="26" as="geometry" />
        </mxCell>
        <mxCell id="yN8j2u117YADS8AMJBHa-9" value="+ moveVertex(): void" style="text;strokeColor=none;fillColor=none;align=left;verticalAlign=top;spacingLeft=4;spacingRight=4;overflow=hidden;rotatable=0;points=[[0,0.5],[1,0.5]];portConstraint=eastwest;whiteSpace=wrap;html=1;" parent="lCYEwEg9oiP1OCXS0-rL-43" vertex="1">
          <mxGeometry y="292" width="245" height="26" as="geometry" />
        </mxCell>
        <mxCell id="yN8j2u117YADS8AMJBHa-11" value="+ addVertex(Vertex v): void" style="text;strokeColor=none;fillColor=none;align=left;verticalAlign=top;spacingLeft=4;spacingRight=4;overflow=hidden;rotatable=0;points=[[0,0.5],[1,0.5]];portConstraint=eastwest;whiteSpace=wrap;html=1;" parent="lCYEwEg9oiP1OCXS0-rL-43" vertex="1">
          <mxGeometry y="318" width="245" height="26" as="geometry" />
        </mxCell>
        <mxCell id="IncMXRNsBareLpS9UFTI-74" value="+ colorPath(List&amp;lt;Vertex&amp;gt;): void" style="text;strokeColor=none;fillColor=none;align=left;verticalAlign=top;spacingLeft=4;spacingRight=4;overflow=hidden;rotatable=0;points=[[0,0.5],[1,0.5]];portConstraint=eastwest;whiteSpace=wrap;html=1;" parent="lCYEwEg9oiP1OCXS0-rL-43" vertex="1">
          <mxGeometry y="344" width="245" height="32" as="geometry" />
        </mxCell>
        <mxCell id="IncMXRNsBareLpS9UFTI-32" value="" style="edgeStyle=orthogonalEdgeStyle;rounded=0;orthogonalLoop=1;jettySize=auto;html=1;" parent="1" source="lCYEwEg9oiP1OCXS0-rL-48" target="IncMXRNsBareLpS9UFTI-10" edge="1">
          <mxGeometry relative="1" as="geometry">
            <Array as="points">
              <mxPoint x="360" y="-20" />
              <mxPoint x="520" y="-20" />
            </Array>
          </mxGeometry>
        </mxCell>
        <mxCell id="IncMXRNsBareLpS9UFTI-33" value="" style="edgeStyle=orthogonalEdgeStyle;rounded=0;orthogonalLoop=1;jettySize=auto;html=1;" parent="1" source="lCYEwEg9oiP1OCXS0-rL-48" target="IncMXRNsBareLpS9UFTI-18" edge="1">
          <mxGeometry relative="1" as="geometry">
            <Array as="points">
              <mxPoint x="360" y="-20" />
              <mxPoint x="758" y="-20" />
            </Array>
          </mxGeometry>
        </mxCell>
        <mxCell id="IncMXRNsBareLpS9UFTI-34" value="" style="edgeStyle=orthogonalEdgeStyle;rounded=0;orthogonalLoop=1;jettySize=auto;html=1;" parent="1" source="lCYEwEg9oiP1OCXS0-rL-48" target="yN8j2u117YADS8AMJBHa-2" edge="1">
          <mxGeometry relative="1" as="geometry">
            <Array as="points">
              <mxPoint x="360" y="-20" />
            </Array>
          </mxGeometry>
        </mxCell>
        <mxCell id="IncMXRNsBareLpS9UFTI-35" value="" style="edgeStyle=orthogonalEdgeStyle;rounded=0;orthogonalLoop=1;jettySize=auto;html=1;" parent="1" source="lCYEwEg9oiP1OCXS0-rL-48" target="lCYEwEg9oiP1OCXS0-rL-52" edge="1">
          <mxGeometry relative="1" as="geometry">
            <Array as="points">
              <mxPoint x="360" y="-20" />
              <mxPoint x="80" y="-20" />
            </Array>
          </mxGeometry>
        </mxCell>
        <mxCell id="IncMXRNsBareLpS9UFTI-36" value="" style="edgeStyle=orthogonalEdgeStyle;rounded=0;orthogonalLoop=1;jettySize=auto;html=1;" parent="1" source="lCYEwEg9oiP1OCXS0-rL-48" target="IncMXRNsBareLpS9UFTI-14" edge="1">
          <mxGeometry relative="1" as="geometry">
            <Array as="points">
              <mxPoint x="360" y="-20" />
              <mxPoint x="-130" y="-20" />
            </Array>
          </mxGeometry>
        </mxCell>
        <mxCell id="lCYEwEg9oiP1OCXS0-rL-48" value="App" style="swimlane;fontStyle=1;align=center;verticalAlign=top;childLayout=stackLayout;horizontal=1;startSize=26;horizontalStack=0;resizeParent=1;resizeParentMax=0;resizeLast=0;collapsible=1;marginBottom=0;whiteSpace=wrap;html=1;fillColor=#f8cecc;strokeColor=#b85450;" parent="1" vertex="1">
          <mxGeometry x="250" y="-433" width="230" height="242" as="geometry" />
        </mxCell>
        <mxCell id="lCYEwEg9oiP1OCXS0-rL-49" value="- menuView: MenuView" style="text;strokeColor=none;fillColor=none;align=left;verticalAlign=top;spacingLeft=4;spacingRight=4;overflow=hidden;rotatable=0;points=[[0,0.5],[1,0.5]];portConstraint=eastwest;whiteSpace=wrap;html=1;" parent="lCYEwEg9oiP1OCXS0-rL-48" vertex="1">
          <mxGeometry y="26" width="230" height="26" as="geometry" />
        </mxCell>
        <mxCell id="yN8j2u117YADS8AMJBHa-14" value="- fileView: FileView" style="text;strokeColor=none;fillColor=none;align=left;verticalAlign=top;spacingLeft=4;spacingRight=4;overflow=hidden;rotatable=0;points=[[0,0.5],[1,0.5]];portConstraint=eastwest;whiteSpace=wrap;html=1;" parent="lCYEwEg9oiP1OCXS0-rL-48" vertex="1">
          <mxGeometry y="52" width="230" height="26" as="geometry" />
        </mxCell>
        <mxCell id="IncMXRNsBareLpS9UFTI-1" value="- adjacencyMatrix: AdjacencyMatrix" style="text;strokeColor=none;fillColor=none;align=left;verticalAlign=top;spacingLeft=4;spacingRight=4;overflow=hidden;rotatable=0;points=[[0,0.5],[1,0.5]];portConstraint=eastwest;whiteSpace=wrap;html=1;" parent="lCYEwEg9oiP1OCXS0-rL-48" vertex="1">
          <mxGeometry y="78" width="230" height="26" as="geometry" />
        </mxCell>
        <mxCell id="IncMXRNsBareLpS9UFTI-3" value="- featureView: FeatureView" style="text;strokeColor=none;fillColor=none;align=left;verticalAlign=top;spacingLeft=4;spacingRight=4;overflow=hidden;rotatable=0;points=[[0,0.5],[1,0.5]];portConstraint=eastwest;whiteSpace=wrap;html=1;" parent="lCYEwEg9oiP1OCXS0-rL-48" vertex="1">
          <mxGeometry y="104" width="230" height="26" as="geometry" />
        </mxCell>
        <mxCell id="IncMXRNsBareLpS9UFTI-2" value="- graphView: GraphView" style="text;strokeColor=none;fillColor=none;align=left;verticalAlign=top;spacingLeft=4;spacingRight=4;overflow=hidden;rotatable=0;points=[[0,0.5],[1,0.5]];portConstraint=eastwest;whiteSpace=wrap;html=1;" parent="lCYEwEg9oiP1OCXS0-rL-48" vertex="1">
          <mxGeometry y="130" width="230" height="26" as="geometry" />
        </mxCell>
        <mxCell id="yN8j2u117YADS8AMJBHa-15" value="- notifyView: NotifyView" style="text;strokeColor=none;fillColor=none;align=left;verticalAlign=top;spacingLeft=4;spacingRight=4;overflow=hidden;rotatable=0;points=[[0,0.5],[1,0.5]];portConstraint=eastwest;whiteSpace=wrap;html=1;" parent="lCYEwEg9oiP1OCXS0-rL-48" vertex="1">
          <mxGeometry y="156" width="230" height="26" as="geometry" />
        </mxCell>
        <mxCell id="tEKyhjhBokwVdmgL0sZL-5" value="- graphController: GraphController" style="text;strokeColor=none;fillColor=none;align=left;verticalAlign=top;spacingLeft=4;spacingRight=4;overflow=hidden;rotatable=0;points=[[0,0.5],[1,0.5]];portConstraint=eastwest;whiteSpace=wrap;html=1;" parent="lCYEwEg9oiP1OCXS0-rL-48" vertex="1">
          <mxGeometry y="182" width="230" height="26" as="geometry" />
        </mxCell>
        <mxCell id="lCYEwEg9oiP1OCXS0-rL-50" value="" style="line;strokeWidth=1;fillColor=none;align=left;verticalAlign=middle;spacingTop=-1;spacingLeft=3;spacingRight=3;rotatable=0;labelPosition=right;points=[];portConstraint=eastwest;strokeColor=inherit;" parent="lCYEwEg9oiP1OCXS0-rL-48" vertex="1">
          <mxGeometry y="208" width="230" height="8" as="geometry" />
        </mxCell>
        <mxCell id="lCYEwEg9oiP1OCXS0-rL-51" value="+ init(): void" style="text;strokeColor=none;fillColor=none;align=left;verticalAlign=top;spacingLeft=4;spacingRight=4;overflow=hidden;rotatable=0;points=[[0,0.5],[1,0.5]];portConstraint=eastwest;whiteSpace=wrap;html=1;" parent="lCYEwEg9oiP1OCXS0-rL-48" vertex="1">
          <mxGeometry y="216" width="230" height="26" as="geometry" />
        </mxCell>
        <mxCell id="lCYEwEg9oiP1OCXS0-rL-52" value="FileView" style="swimlane;fontStyle=1;align=center;verticalAlign=top;childLayout=stackLayout;horizontal=1;startSize=26;horizontalStack=0;resizeParent=1;resizeParentMax=0;resizeLast=0;collapsible=1;marginBottom=0;whiteSpace=wrap;html=1;fillColor=#f8cecc;strokeColor=#b85450;" parent="1" vertex="1">
          <mxGeometry y="10" width="160" height="86" as="geometry" />
        </mxCell>
        <mxCell id="lCYEwEg9oiP1OCXS0-rL-53" value="- saveFileButton: JButton" style="text;strokeColor=none;fillColor=none;align=left;verticalAlign=top;spacingLeft=4;spacingRight=4;overflow=hidden;rotatable=0;points=[[0,0.5],[1,0.5]];portConstraint=eastwest;whiteSpace=wrap;html=1;" parent="lCYEwEg9oiP1OCXS0-rL-52" vertex="1">
          <mxGeometry y="26" width="160" height="26" as="geometry" />
        </mxCell>
        <mxCell id="IncMXRNsBareLpS9UFTI-81" value="- openFileButton: JButton" style="text;strokeColor=none;fillColor=none;align=left;verticalAlign=top;spacingLeft=4;spacingRight=4;overflow=hidden;rotatable=0;points=[[0,0.5],[1,0.5]];portConstraint=eastwest;whiteSpace=wrap;html=1;" parent="lCYEwEg9oiP1OCXS0-rL-52" vertex="1">
          <mxGeometry y="52" width="160" height="26" as="geometry" />
        </mxCell>
        <mxCell id="lCYEwEg9oiP1OCXS0-rL-54" value="" style="line;strokeWidth=1;fillColor=none;align=left;verticalAlign=middle;spacingTop=-1;spacingLeft=3;spacingRight=3;rotatable=0;labelPosition=right;points=[];portConstraint=eastwest;strokeColor=inherit;" parent="lCYEwEg9oiP1OCXS0-rL-52" vertex="1">
          <mxGeometry y="78" width="160" height="8" as="geometry" />
        </mxCell>
        <mxCell id="yN8j2u117YADS8AMJBHa-2" value="GraphView" style="swimlane;fontStyle=1;align=center;verticalAlign=top;childLayout=stackLayout;horizontal=1;startSize=26;horizontalStack=0;resizeParent=1;resizeParentMax=0;resizeLast=0;collapsible=1;marginBottom=0;whiteSpace=wrap;html=1;fillColor=#f8cecc;strokeColor=#b85450;" parent="1" vertex="1">
          <mxGeometry x="1420" y="10" width="220" height="216" as="geometry" />
        </mxCell>
        <mxCell id="tEKyhjhBokwVdmgL0sZL-7" value="- graphController: GraphController" style="text;strokeColor=none;fillColor=none;align=left;verticalAlign=top;spacingLeft=4;spacingRight=4;overflow=hidden;rotatable=0;points=[[0,0.5],[1,0.5]];portConstraint=eastwest;whiteSpace=wrap;html=1;" parent="yN8j2u117YADS8AMJBHa-2" vertex="1">
          <mxGeometry y="26" width="220" height="26" as="geometry" />
        </mxCell>
        <mxCell id="9LMU5q8Dn6a0NJVtVapk-5" value="- vertexs: List&amp;lt;VertexController&amp;gt;" style="text;strokeColor=none;fillColor=none;align=left;verticalAlign=top;spacingLeft=4;spacingRight=4;overflow=hidden;rotatable=0;points=[[0,0.5],[1,0.5]];portConstraint=eastwest;whiteSpace=wrap;html=1;" parent="yN8j2u117YADS8AMJBHa-2" vertex="1">
          <mxGeometry y="52" width="220" height="26" as="geometry" />
        </mxCell>
        <mxCell id="9LMU5q8Dn6a0NJVtVapk-6" value="- edges: List&amp;lt;EdgeController&amp;gt;&amp;nbsp;" style="text;strokeColor=none;fillColor=none;align=left;verticalAlign=top;spacingLeft=4;spacingRight=4;overflow=hidden;rotatable=0;points=[[0,0.5],[1,0.5]];portConstraint=eastwest;whiteSpace=wrap;html=1;" parent="yN8j2u117YADS8AMJBHa-2" vertex="1">
          <mxGeometry y="78" width="220" height="26" as="geometry" />
        </mxCell>
        <mxCell id="9LMU5q8Dn6a0NJVtVapk-7" value="- controller GraphController" style="text;strokeColor=none;fillColor=none;align=left;verticalAlign=top;spacingLeft=4;spacingRight=4;overflow=hidden;rotatable=0;points=[[0,0.5],[1,0.5]];portConstraint=eastwest;whiteSpace=wrap;html=1;" parent="yN8j2u117YADS8AMJBHa-2" vertex="1">
          <mxGeometry y="104" width="220" height="26" as="geometry" />
        </mxCell>
        <mxCell id="9LMU5q8Dn6a0NJVtVapk-8" value="- vertexController: VertexController" style="text;strokeColor=none;fillColor=none;align=left;verticalAlign=top;spacingLeft=4;spacingRight=4;overflow=hidden;rotatable=0;points=[[0,0.5],[1,0.5]];portConstraint=eastwest;whiteSpace=wrap;html=1;" parent="yN8j2u117YADS8AMJBHa-2" vertex="1">
          <mxGeometry y="130" width="220" height="26" as="geometry" />
        </mxCell>
        <mxCell id="9LMU5q8Dn6a0NJVtVapk-9" value="- edgeController:&amp;nbsp;EdgeController" style="text;strokeColor=none;fillColor=none;align=left;verticalAlign=top;spacingLeft=4;spacingRight=4;overflow=hidden;rotatable=0;points=[[0,0.5],[1,0.5]];portConstraint=eastwest;whiteSpace=wrap;html=1;" parent="yN8j2u117YADS8AMJBHa-2" vertex="1">
          <mxGeometry y="156" width="220" height="26" as="geometry" />
        </mxCell>
        <mxCell id="yN8j2u117YADS8AMJBHa-4" value="" style="line;strokeWidth=1;fillColor=none;align=left;verticalAlign=middle;spacingTop=-1;spacingLeft=3;spacingRight=3;rotatable=0;labelPosition=right;points=[];portConstraint=eastwest;strokeColor=inherit;" parent="yN8j2u117YADS8AMJBHa-2" vertex="1">
          <mxGeometry y="182" width="220" height="8" as="geometry" />
        </mxCell>
        <mxCell id="yN8j2u117YADS8AMJBHa-5" value="+ renderView(): void" style="text;strokeColor=none;fillColor=none;align=left;verticalAlign=top;spacingLeft=4;spacingRight=4;overflow=hidden;rotatable=0;points=[[0,0.5],[1,0.5]];portConstraint=eastwest;whiteSpace=wrap;html=1;" parent="yN8j2u117YADS8AMJBHa-2" vertex="1">
          <mxGeometry y="190" width="220" height="26" as="geometry" />
        </mxCell>
        <mxCell id="yN8j2u117YADS8AMJBHa-6" value="dispatch" style="html=1;verticalAlign=bottom;endArrow=block;edgeStyle=elbowEdgeStyle;elbow=vertical;curved=0;rounded=0;textOpacity=0;" parent="1" source="lCYEwEg9oiP1OCXS0-rL-43" target="lCYEwEg9oiP1OCXS0-rL-14" edge="1">
          <mxGeometry x="0.25" y="20" width="80" relative="1" as="geometry">
            <mxPoint x="690" y="814" as="sourcePoint" />
            <mxPoint x="510" y="450" as="targetPoint" />
            <mxPoint as="offset" />
            <Array as="points">
              <mxPoint x="-560" y="-250" />
              <mxPoint x="320" y="630" />
              <mxPoint x="170" y="550" />
              <mxPoint x="640" y="390" />
              <mxPoint x="560" y="520" />
              <mxPoint x="650" y="379" />
            </Array>
          </mxGeometry>
        </mxCell>
        <mxCell id="IncMXRNsBareLpS9UFTI-10" value="SearchMenuView" style="swimlane;fontStyle=1;align=center;verticalAlign=top;childLayout=stackLayout;horizontal=1;startSize=26;horizontalStack=0;resizeParent=1;resizeParentMax=0;resizeLast=0;collapsible=1;marginBottom=0;whiteSpace=wrap;html=1;fillColor=#f8cecc;strokeColor=#b85450;" parent="1" vertex="1">
          <mxGeometry x="440" y="10" width="190" height="60" as="geometry" />
        </mxCell>
        <mxCell id="IncMXRNsBareLpS9UFTI-11" value="- buttonList: List&amp;lt;JButton&amp;gt;" style="text;strokeColor=none;fillColor=none;align=left;verticalAlign=top;spacingLeft=4;spacingRight=4;overflow=hidden;rotatable=0;points=[[0,0.5],[1,0.5]];portConstraint=eastwest;whiteSpace=wrap;html=1;" parent="IncMXRNsBareLpS9UFTI-10" vertex="1">
          <mxGeometry y="26" width="190" height="26" as="geometry" />
        </mxCell>
        <mxCell id="IncMXRNsBareLpS9UFTI-12" value="" style="line;strokeWidth=1;fillColor=none;align=left;verticalAlign=middle;spacingTop=-1;spacingLeft=3;spacingRight=3;rotatable=0;labelPosition=right;points=[];portConstraint=eastwest;strokeColor=inherit;" parent="IncMXRNsBareLpS9UFTI-10" vertex="1">
          <mxGeometry y="52" width="190" height="8" as="geometry" />
        </mxCell>
        <mxCell id="IncMXRNsBareLpS9UFTI-14" value="FeatureView" style="swimlane;fontStyle=1;align=center;verticalAlign=top;childLayout=stackLayout;horizontal=1;startSize=26;horizontalStack=0;resizeParent=1;resizeParentMax=0;resizeLast=0;collapsible=1;marginBottom=0;whiteSpace=wrap;html=1;fillColor=#f8cecc;strokeColor=#b85450;" parent="1" vertex="1">
          <mxGeometry x="-240" y="10" width="210" height="86" as="geometry" />
        </mxCell>
        <mxCell id="IncMXRNsBareLpS9UFTI-15" value="- featureButton: List&amp;lt;JButton&amp;gt;" style="text;strokeColor=none;fillColor=none;align=left;verticalAlign=top;spacingLeft=4;spacingRight=4;overflow=hidden;rotatable=0;points=[[0,0.5],[1,0.5]];portConstraint=eastwest;whiteSpace=wrap;html=1;" parent="IncMXRNsBareLpS9UFTI-14" vertex="1">
          <mxGeometry y="26" width="210" height="26" as="geometry" />
        </mxCell>
        <mxCell id="tEKyhjhBokwVdmgL0sZL-6" value="- graphController: GraphController" style="text;strokeColor=none;fillColor=none;align=left;verticalAlign=top;spacingLeft=4;spacingRight=4;overflow=hidden;rotatable=0;points=[[0,0.5],[1,0.5]];portConstraint=eastwest;whiteSpace=wrap;html=1;" parent="IncMXRNsBareLpS9UFTI-14" vertex="1">
          <mxGeometry y="52" width="210" height="26" as="geometry" />
        </mxCell>
        <mxCell id="IncMXRNsBareLpS9UFTI-16" value="" style="line;strokeWidth=1;fillColor=none;align=left;verticalAlign=middle;spacingTop=-1;spacingLeft=3;spacingRight=3;rotatable=0;labelPosition=right;points=[];portConstraint=eastwest;strokeColor=inherit;" parent="IncMXRNsBareLpS9UFTI-14" vertex="1">
          <mxGeometry y="78" width="210" height="8" as="geometry" />
        </mxCell>
        <mxCell id="IncMXRNsBareLpS9UFTI-18" value="NotifyView" style="swimlane;fontStyle=1;align=center;verticalAlign=top;childLayout=stackLayout;horizontal=1;startSize=26;horizontalStack=0;resizeParent=1;resizeParentMax=0;resizeLast=0;collapsible=1;marginBottom=0;whiteSpace=wrap;html=1;fillColor=#f8cecc;strokeColor=#b85450;" parent="1" vertex="1">
          <mxGeometry x="650" y="10" width="240" height="138" as="geometry" />
        </mxCell>
        <mxCell id="tEKyhjhBokwVdmgL0sZL-9" value="- notify: String[]" style="text;strokeColor=none;fillColor=none;align=left;verticalAlign=top;spacingLeft=4;spacingRight=4;overflow=hidden;rotatable=0;points=[[0,0.5],[1,0.5]];portConstraint=eastwest;whiteSpace=wrap;html=1;" parent="IncMXRNsBareLpS9UFTI-18" vertex="1">
          <mxGeometry y="26" width="240" height="26" as="geometry" />
        </mxCell>
        <mxCell id="izIf3tRvV_jU_N7sfZag-6" value="- instance: NotifyView" style="text;strokeColor=none;fillColor=none;align=left;verticalAlign=top;spacingLeft=4;spacingRight=4;overflow=hidden;rotatable=0;points=[[0,0.5],[1,0.5]];portConstraint=eastwest;whiteSpace=wrap;html=1;" parent="IncMXRNsBareLpS9UFTI-18" vertex="1">
          <mxGeometry y="52" width="240" height="26" as="geometry" />
        </mxCell>
        <mxCell id="IncMXRNsBareLpS9UFTI-20" value="" style="line;strokeWidth=1;fillColor=none;align=left;verticalAlign=middle;spacingTop=-1;spacingLeft=3;spacingRight=3;rotatable=0;labelPosition=right;points=[];portConstraint=eastwest;strokeColor=inherit;" parent="IncMXRNsBareLpS9UFTI-18" vertex="1">
          <mxGeometry y="78" width="240" height="8" as="geometry" />
        </mxCell>
        <mxCell id="FBMKChIWelxDI7sZAd13-12" value="- NotifyView()" style="text;strokeColor=none;fillColor=none;align=left;verticalAlign=top;spacingLeft=4;spacingRight=4;overflow=hidden;rotatable=0;points=[[0,0.5],[1,0.5]];portConstraint=eastwest;whiteSpace=wrap;html=1;" parent="IncMXRNsBareLpS9UFTI-18" vertex="1">
          <mxGeometry y="86" width="240" height="26" as="geometry" />
        </mxCell>
        <mxCell id="izIf3tRvV_jU_N7sfZag-7" value="+ &amp;lt;&amp;lt;static&amp;gt;&amp;gt;getInstance&amp;gt;(): NotifyView" style="text;strokeColor=none;fillColor=none;align=left;verticalAlign=top;spacingLeft=4;spacingRight=4;overflow=hidden;rotatable=0;points=[[0,0.5],[1,0.5]];portConstraint=eastwest;whiteSpace=wrap;html=1;" parent="IncMXRNsBareLpS9UFTI-18" vertex="1">
          <mxGeometry y="112" width="240" height="26" as="geometry" />
        </mxCell>
        <mxCell id="IncMXRNsBareLpS9UFTI-37" value="" style="edgeStyle=orthogonalEdgeStyle;rounded=0;orthogonalLoop=1;jettySize=auto;html=1;" parent="1" source="lCYEwEg9oiP1OCXS0-rL-48" target="IncMXRNsBareLpS9UFTI-22" edge="1">
          <mxGeometry relative="1" as="geometry">
            <mxPoint x="375" y="-39" as="sourcePoint" />
            <mxPoint x="210" y="263" as="targetPoint" />
            <Array as="points">
              <mxPoint x="360" y="-20" />
              <mxPoint x="270" y="-20" />
            </Array>
          </mxGeometry>
        </mxCell>
        <mxCell id="IncMXRNsBareLpS9UFTI-22" value="MatrixView" style="swimlane;fontStyle=1;align=center;verticalAlign=top;childLayout=stackLayout;horizontal=1;startSize=26;horizontalStack=0;resizeParent=1;resizeParentMax=0;resizeLast=0;collapsible=1;marginBottom=0;whiteSpace=wrap;html=1;fillColor=#f8cecc;strokeColor=#b85450;" parent="1" vertex="1">
          <mxGeometry x="194" y="10" width="220" height="60" as="geometry" />
        </mxCell>
        <mxCell id="IncMXRNsBareLpS9UFTI-23" value="- graphController: GraphController" style="text;strokeColor=none;fillColor=none;align=left;verticalAlign=top;spacingLeft=4;spacingRight=4;overflow=hidden;rotatable=0;points=[[0,0.5],[1,0.5]];portConstraint=eastwest;whiteSpace=wrap;html=1;" parent="IncMXRNsBareLpS9UFTI-22" vertex="1">
          <mxGeometry y="26" width="220" height="26" as="geometry" />
        </mxCell>
        <mxCell id="IncMXRNsBareLpS9UFTI-24" value="" style="line;strokeWidth=1;fillColor=none;align=left;verticalAlign=middle;spacingTop=-1;spacingLeft=3;spacingRight=3;rotatable=0;labelPosition=right;points=[];portConstraint=eastwest;strokeColor=inherit;" parent="IncMXRNsBareLpS9UFTI-22" vertex="1">
          <mxGeometry y="52" width="220" height="8" as="geometry" />
        </mxCell>
        <mxCell id="IncMXRNsBareLpS9UFTI-43" value="dispatch" style="html=1;verticalAlign=bottom;endArrow=block;edgeStyle=elbowEdgeStyle;elbow=vertical;curved=0;rounded=0;textOpacity=0;" parent="1" source="lCYEwEg9oiP1OCXS0-rL-43" target="yN8j2u117YADS8AMJBHa-2" edge="1">
          <mxGeometry x="0.25" y="20" width="80" relative="1" as="geometry">
            <mxPoint x="310" y="240" as="sourcePoint" />
            <mxPoint x="640" y="210" as="targetPoint" />
            <mxPoint as="offset" />
            <Array as="points">
              <mxPoint x="360" y="190" />
              <mxPoint x="630" y="160" />
              <mxPoint x="710" y="130" />
            </Array>
          </mxGeometry>
        </mxCell>
        <mxCell id="IncMXRNsBareLpS9UFTI-46" value="&lt;p style=&quot;margin:0px;margin-top:4px;text-align:center;&quot;&gt;&lt;i&gt;&amp;lt;&amp;lt;Interface&amp;gt;&amp;gt;&lt;/i&gt;&lt;/p&gt;&lt;p style=&quot;margin:0px;margin-top:4px;text-align:center;&quot;&gt;&lt;b&gt;PathFindingStrategy&lt;/b&gt;&lt;br&gt;&lt;/p&gt;&lt;hr size=&quot;1&quot;&gt;&lt;p style=&quot;margin:0px;margin-left:4px;&quot;&gt;+ findShortestPath(Type): List&amp;lt;Vertex&amp;gt;&lt;br&gt;&lt;/p&gt;" style="verticalAlign=top;align=left;overflow=fill;fontSize=12;fontFamily=Helvetica;html=1;whiteSpace=wrap;" parent="1" vertex="1">
          <mxGeometry x="-150" y="350" width="240" height="78" as="geometry" />
        </mxCell>
        <mxCell id="IncMXRNsBareLpS9UFTI-51" value="BellmanFordSearch" style="swimlane;fontStyle=1;align=center;verticalAlign=top;childLayout=stackLayout;horizontal=1;startSize=26;horizontalStack=0;resizeParent=1;resizeParentMax=0;resizeLast=0;collapsible=1;marginBottom=0;whiteSpace=wrap;html=1;fillColor=#f8cecc;strokeColor=#b85450;" parent="1" vertex="1">
          <mxGeometry x="-202.5" y="530" width="345" height="86" as="geometry" />
        </mxCell>
        <mxCell id="IncMXRNsBareLpS9UFTI-53" value="" style="line;strokeWidth=1;fillColor=none;align=left;verticalAlign=middle;spacingTop=-1;spacingLeft=3;spacingRight=3;rotatable=0;labelPosition=right;points=[];portConstraint=eastwest;strokeColor=inherit;" parent="IncMXRNsBareLpS9UFTI-51" vertex="1">
          <mxGeometry y="26" width="345" height="8" as="geometry" />
        </mxCell>
        <mxCell id="IncMXRNsBareLpS9UFTI-54" value="+ findShortestPath(Type): List&amp;lt;Vertex&amp;gt;" style="text;strokeColor=none;fillColor=none;align=left;verticalAlign=top;spacingLeft=4;spacingRight=4;overflow=hidden;rotatable=0;points=[[0,0.5],[1,0.5]];portConstraint=eastwest;whiteSpace=wrap;html=1;" parent="IncMXRNsBareLpS9UFTI-51" vertex="1">
          <mxGeometry y="34" width="345" height="26" as="geometry" />
        </mxCell>
        <mxCell id="WuYdYey0Z6FS718gPj1q-66" value="- helper(Graph graph, Vertex startVertex, Vertex&amp;nbsp; endVertex)" style="text;strokeColor=none;fillColor=none;align=left;verticalAlign=top;spacingLeft=4;spacingRight=4;overflow=hidden;rotatable=0;points=[[0,0.5],[1,0.5]];portConstraint=eastwest;whiteSpace=wrap;html=1;" parent="IncMXRNsBareLpS9UFTI-51" vertex="1">
          <mxGeometry y="60" width="345" height="26" as="geometry" />
        </mxCell>
        <mxCell id="IncMXRNsBareLpS9UFTI-56" value="" style="endArrow=block;dashed=1;endFill=0;endSize=12;html=1;rounded=0;" parent="1" source="IncMXRNsBareLpS9UFTI-51" target="IncMXRNsBareLpS9UFTI-46" edge="1">
          <mxGeometry width="160" relative="1" as="geometry">
            <mxPoint x="1090" y="350" as="sourcePoint" />
            <mxPoint x="1105" y="310" as="targetPoint" />
          </mxGeometry>
        </mxCell>
        <mxCell id="IncMXRNsBareLpS9UFTI-57" value="dispatch" style="html=1;verticalAlign=bottom;endArrow=block;edgeStyle=elbowEdgeStyle;elbow=vertical;curved=0;rounded=0;textOpacity=0;" parent="1" source="lCYEwEg9oiP1OCXS0-rL-14" target="IncMXRNsBareLpS9UFTI-46" edge="1">
          <mxGeometry x="0.25" y="20" width="80" relative="1" as="geometry">
            <mxPoint x="650" y="270" as="sourcePoint" />
            <mxPoint x="720" y="106" as="targetPoint" />
            <mxPoint as="offset" />
            <Array as="points">
              <mxPoint x="-290" y="370" />
              <mxPoint x="580" y="270" />
              <mxPoint x="490" y="210" />
              <mxPoint x="310" y="180" />
              <mxPoint x="720" y="140" />
            </Array>
          </mxGeometry>
        </mxCell>
        <mxCell id="tEKyhjhBokwVdmgL0sZL-4" value="dispatch" style="html=1;verticalAlign=bottom;endArrow=block;edgeStyle=elbowEdgeStyle;elbow=vertical;curved=0;rounded=0;textOpacity=0;" parent="1" source="IncMXRNsBareLpS9UFTI-14" target="lCYEwEg9oiP1OCXS0-rL-43" edge="1">
          <mxGeometry x="0.25" y="20" width="80" relative="1" as="geometry">
            <mxPoint x="80" y="190" as="sourcePoint" />
            <mxPoint x="80" y="142" as="targetPoint" />
            <mxPoint as="offset" />
            <Array as="points">
              <mxPoint x="-210" y="-110" />
              <mxPoint x="-120" y="330" />
              <mxPoint x="80" y="160" />
              <mxPoint x="557" y="150" />
            </Array>
          </mxGeometry>
        </mxCell>
        <mxCell id="WuYdYey0Z6FS718gPj1q-1" value="&lt;p style=&quot;margin:0px;margin-top:4px;text-align:center;&quot;&gt;&lt;i&gt;&amp;lt;&amp;lt;Interface&amp;gt;&amp;gt;&lt;/i&gt;&lt;/p&gt;&lt;p style=&quot;margin:0px;margin-top:4px;text-align:center;&quot;&gt;&lt;b&gt;Subject&lt;/b&gt;&lt;/p&gt;&lt;hr size=&quot;1&quot;&gt;&lt;p style=&quot;margin:0px;margin-left:4px;&quot;&gt;-&amp;nbsp;registerObserver(Observer o): void&lt;/p&gt;&lt;p style=&quot;margin:0px;margin-left:4px;&quot;&gt;-&amp;nbsp;removeObserver(Observer o): void&lt;/p&gt;&lt;p style=&quot;margin:0px;margin-left:4px;&quot;&gt;-&amp;nbsp;notifyObservers(): void&lt;/p&gt;" style="verticalAlign=top;align=left;overflow=fill;fontSize=12;fontFamily=Helvetica;html=1;whiteSpace=wrap;" parent="1" vertex="1">
          <mxGeometry x="-420" y="-670" width="240" height="100" as="geometry" />
        </mxCell>
        <mxCell id="WuYdYey0Z6FS718gPj1q-2" value="&lt;p style=&quot;margin:0px;margin-top:4px;text-align:center;&quot;&gt;&lt;i&gt;&amp;lt;&amp;lt;Interface&amp;gt;&amp;gt;&lt;/i&gt;&lt;/p&gt;&lt;p style=&quot;margin:0px;margin-top:4px;text-align:center;&quot;&gt;&lt;b&gt;Observer&lt;/b&gt;&lt;/p&gt;&lt;hr size=&quot;1&quot;&gt;&lt;p style=&quot;margin:0px;margin-left:4px;&quot;&gt;-&amp;nbsp;updateGraph(Graph g): void&lt;/p&gt;" style="verticalAlign=top;align=left;overflow=fill;fontSize=12;fontFamily=Helvetica;html=1;whiteSpace=wrap;" parent="1" vertex="1">
          <mxGeometry x="245" y="-659" width="240" height="78" as="geometry" />
        </mxCell>
        <mxCell id="WuYdYey0Z6FS718gPj1q-3" value="" style="endArrow=block;dashed=1;endFill=0;endSize=12;html=1;rounded=0;exitX=0.5;exitY=0;exitDx=0;exitDy=0;" parent="1" source="lCYEwEg9oiP1OCXS0-rL-43" target="WuYdYey0Z6FS718gPj1q-1" edge="1">
          <mxGeometry width="160" relative="1" as="geometry">
            <mxPoint x="23" y="492" as="sourcePoint" />
            <mxPoint x="-430" y="-170" as="targetPoint" />
            <Array as="points" />
          </mxGeometry>
        </mxCell>
        <mxCell id="WuYdYey0Z6FS718gPj1q-6" value="VertexController" style="swimlane;fontStyle=1;align=center;verticalAlign=top;childLayout=stackLayout;horizontal=1;startSize=26;horizontalStack=0;resizeParent=1;resizeParentMax=0;resizeLast=0;collapsible=1;marginBottom=0;whiteSpace=wrap;html=1;fillColor=#f8cecc;strokeColor=#b85450;" parent="1" vertex="1">
          <mxGeometry x="-550" y="928" width="200" height="164" as="geometry" />
        </mxCell>
        <mxCell id="WuYdYey0Z6FS718gPj1q-7" value="- model: Vertex" style="text;strokeColor=none;fillColor=none;align=left;verticalAlign=top;spacingLeft=4;spacingRight=4;overflow=hidden;rotatable=0;points=[[0,0.5],[1,0.5]];portConstraint=eastwest;whiteSpace=wrap;html=1;" parent="WuYdYey0Z6FS718gPj1q-6" vertex="1">
          <mxGeometry y="26" width="200" height="26" as="geometry" />
        </mxCell>
        <mxCell id="WuYdYey0Z6FS718gPj1q-32" value="- view: VertexView" style="text;strokeColor=none;fillColor=none;align=left;verticalAlign=top;spacingLeft=4;spacingRight=4;overflow=hidden;rotatable=0;points=[[0,0.5],[1,0.5]];portConstraint=eastwest;whiteSpace=wrap;html=1;" parent="WuYdYey0Z6FS718gPj1q-6" vertex="1">
          <mxGeometry y="52" width="200" height="26" as="geometry" />
        </mxCell>
        <mxCell id="WuYdYey0Z6FS718gPj1q-8" value="" style="line;strokeWidth=1;fillColor=none;align=left;verticalAlign=middle;spacingTop=-1;spacingLeft=3;spacingRight=3;rotatable=0;labelPosition=right;points=[];portConstraint=eastwest;strokeColor=inherit;" parent="WuYdYey0Z6FS718gPj1q-6" vertex="1">
          <mxGeometry y="78" width="200" height="8" as="geometry" />
        </mxCell>
        <mxCell id="WuYdYey0Z6FS718gPj1q-9" value="+ updateView(Graphics2D g): void" style="text;strokeColor=none;fillColor=none;align=left;verticalAlign=top;spacingLeft=4;spacingRight=4;overflow=hidden;rotatable=0;points=[[0,0.5],[1,0.5]];portConstraint=eastwest;whiteSpace=wrap;html=1;" parent="WuYdYey0Z6FS718gPj1q-6" vertex="1">
          <mxGeometry y="86" width="200" height="26" as="geometry" />
        </mxCell>
        <mxCell id="WuYdYey0Z6FS718gPj1q-37" value="+ move(int x, int y): void" style="text;strokeColor=none;fillColor=none;align=left;verticalAlign=top;spacingLeft=4;spacingRight=4;overflow=hidden;rotatable=0;points=[[0,0.5],[1,0.5]];portConstraint=eastwest;whiteSpace=wrap;html=1;" parent="WuYdYey0Z6FS718gPj1q-6" vertex="1">
          <mxGeometry y="112" width="200" height="26" as="geometry" />
        </mxCell>
        <mxCell id="WuYdYey0Z6FS718gPj1q-38" value="+ isClick(Point location): void" style="text;strokeColor=none;fillColor=none;align=left;verticalAlign=top;spacingLeft=4;spacingRight=4;overflow=hidden;rotatable=0;points=[[0,0.5],[1,0.5]];portConstraint=eastwest;whiteSpace=wrap;html=1;" parent="WuYdYey0Z6FS718gPj1q-6" vertex="1">
          <mxGeometry y="138" width="200" height="26" as="geometry" />
        </mxCell>
        <mxCell id="WuYdYey0Z6FS718gPj1q-10" value="VertexView" style="swimlane;fontStyle=1;align=center;verticalAlign=top;childLayout=stackLayout;horizontal=1;startSize=26;horizontalStack=0;resizeParent=1;resizeParentMax=0;resizeLast=0;collapsible=1;marginBottom=0;whiteSpace=wrap;html=1;fillColor=#f8cecc;strokeColor=#b85450;" parent="1" vertex="1">
          <mxGeometry x="-780" y="1026" width="160" height="60" as="geometry" />
        </mxCell>
        <mxCell id="WuYdYey0Z6FS718gPj1q-12" value="" style="line;strokeWidth=1;fillColor=none;align=left;verticalAlign=middle;spacingTop=-1;spacingLeft=3;spacingRight=3;rotatable=0;labelPosition=right;points=[];portConstraint=eastwest;strokeColor=inherit;" parent="WuYdYey0Z6FS718gPj1q-10" vertex="1">
          <mxGeometry y="26" width="160" height="8" as="geometry" />
        </mxCell>
        <mxCell id="WuYdYey0Z6FS718gPj1q-13" value="+ drawPoint(): void" style="text;strokeColor=none;fillColor=none;align=left;verticalAlign=top;spacingLeft=4;spacingRight=4;overflow=hidden;rotatable=0;points=[[0,0.5],[1,0.5]];portConstraint=eastwest;whiteSpace=wrap;html=1;" parent="WuYdYey0Z6FS718gPj1q-10" vertex="1">
          <mxGeometry y="34" width="160" height="26" as="geometry" />
        </mxCell>
        <mxCell id="WuYdYey0Z6FS718gPj1q-14" value="EdgeController" style="swimlane;fontStyle=1;align=center;verticalAlign=top;childLayout=stackLayout;horizontal=1;startSize=26;horizontalStack=0;resizeParent=1;resizeParentMax=0;resizeLast=0;collapsible=1;marginBottom=0;whiteSpace=wrap;html=1;fillColor=#f8cecc;strokeColor=#b85450;" parent="1" vertex="1">
          <mxGeometry x="100" y="790" width="550" height="138" as="geometry" />
        </mxCell>
        <mxCell id="WuYdYey0Z6FS718gPj1q-15" value="- model: Edge" style="text;strokeColor=none;fillColor=none;align=left;verticalAlign=top;spacingLeft=4;spacingRight=4;overflow=hidden;rotatable=0;points=[[0,0.5],[1,0.5]];portConstraint=eastwest;whiteSpace=wrap;html=1;" parent="WuYdYey0Z6FS718gPj1q-14" vertex="1">
          <mxGeometry y="26" width="550" height="26" as="geometry" />
        </mxCell>
        <mxCell id="WuYdYey0Z6FS718gPj1q-36" value="- view: EdgeView" style="text;strokeColor=none;fillColor=none;align=left;verticalAlign=top;spacingLeft=4;spacingRight=4;overflow=hidden;rotatable=0;points=[[0,0.5],[1,0.5]];portConstraint=eastwest;whiteSpace=wrap;html=1;" parent="WuYdYey0Z6FS718gPj1q-14" vertex="1">
          <mxGeometry y="52" width="550" height="26" as="geometry" />
        </mxCell>
        <mxCell id="WuYdYey0Z6FS718gPj1q-16" value="" style="line;strokeWidth=1;fillColor=none;align=left;verticalAlign=middle;spacingTop=-1;spacingLeft=3;spacingRight=3;rotatable=0;labelPosition=right;points=[];portConstraint=eastwest;strokeColor=inherit;" parent="WuYdYey0Z6FS718gPj1q-14" vertex="1">
          <mxGeometry y="78" width="550" height="8" as="geometry" />
        </mxCell>
        <mxCell id="WuYdYey0Z6FS718gPj1q-17" value="+ updateView(Graphics2D g, Color color): void" style="text;strokeColor=none;fillColor=none;align=left;verticalAlign=top;spacingLeft=4;spacingRight=4;overflow=hidden;rotatable=0;points=[[0,0.5],[1,0.5]];portConstraint=eastwest;whiteSpace=wrap;html=1;" parent="WuYdYey0Z6FS718gPj1q-14" vertex="1">
          <mxGeometry y="86" width="550" height="26" as="geometry" />
        </mxCell>
        <mxCell id="WuYdYey0Z6FS718gPj1q-46" value="+ drawLine(Graphics2D g, Color colorPoint, int stX, int stY, int desX, int desY, String weight): void" style="text;strokeColor=none;fillColor=none;align=left;verticalAlign=top;spacingLeft=4;spacingRight=4;overflow=hidden;rotatable=0;points=[[0,0.5],[1,0.5]];portConstraint=eastwest;whiteSpace=wrap;html=1;" parent="WuYdYey0Z6FS718gPj1q-14" vertex="1">
          <mxGeometry y="112" width="550" height="26" as="geometry" />
        </mxCell>
        <mxCell id="WuYdYey0Z6FS718gPj1q-18" value="EdgeView" style="swimlane;fontStyle=1;align=center;verticalAlign=top;childLayout=stackLayout;horizontal=1;startSize=26;horizontalStack=0;resizeParent=1;resizeParentMax=0;resizeLast=0;collapsible=1;marginBottom=0;whiteSpace=wrap;html=1;fillColor=#f8cecc;strokeColor=#b85450;" parent="1" vertex="1">
          <mxGeometry x="455" y="1056" width="160" height="86" as="geometry" />
        </mxCell>
        <mxCell id="WuYdYey0Z6FS718gPj1q-19" value="+ field: type" style="text;strokeColor=none;fillColor=none;align=left;verticalAlign=top;spacingLeft=4;spacingRight=4;overflow=hidden;rotatable=0;points=[[0,0.5],[1,0.5]];portConstraint=eastwest;whiteSpace=wrap;html=1;" parent="WuYdYey0Z6FS718gPj1q-18" vertex="1">
          <mxGeometry y="26" width="160" height="26" as="geometry" />
        </mxCell>
        <mxCell id="WuYdYey0Z6FS718gPj1q-20" value="" style="line;strokeWidth=1;fillColor=none;align=left;verticalAlign=middle;spacingTop=-1;spacingLeft=3;spacingRight=3;rotatable=0;labelPosition=right;points=[];portConstraint=eastwest;strokeColor=inherit;" parent="WuYdYey0Z6FS718gPj1q-18" vertex="1">
          <mxGeometry y="52" width="160" height="8" as="geometry" />
        </mxCell>
        <mxCell id="WuYdYey0Z6FS718gPj1q-21" value="+ drawPoint(): void" style="text;strokeColor=none;fillColor=none;align=left;verticalAlign=top;spacingLeft=4;spacingRight=4;overflow=hidden;rotatable=0;points=[[0,0.5],[1,0.5]];portConstraint=eastwest;whiteSpace=wrap;html=1;" parent="WuYdYey0Z6FS718gPj1q-18" vertex="1">
          <mxGeometry y="60" width="160" height="26" as="geometry" />
        </mxCell>
        <mxCell id="WuYdYey0Z6FS718gPj1q-31" value="dispatch" style="html=1;verticalAlign=bottom;endArrow=block;edgeStyle=elbowEdgeStyle;elbow=vertical;curved=0;rounded=0;textOpacity=0;" parent="1" source="WuYdYey0Z6FS718gPj1q-6" target="lCYEwEg9oiP1OCXS0-rL-22" edge="1">
          <mxGeometry x="0.25" y="20" width="80" relative="1" as="geometry">
            <mxPoint x="-100" y="936" as="sourcePoint" />
            <mxPoint x="-100" y="1050" as="targetPoint" />
            <mxPoint as="offset" />
            <Array as="points">
              <mxPoint x="-360" y="950" />
              <mxPoint x="-290" y="850" />
              <mxPoint x="-100" y="981" />
              <mxPoint x="-250" y="901" />
              <mxPoint x="220" y="741" />
              <mxPoint x="140" y="871" />
              <mxPoint x="230" y="730" />
            </Array>
          </mxGeometry>
        </mxCell>
        <mxCell id="WuYdYey0Z6FS718gPj1q-33" value="dispatch" style="html=1;verticalAlign=bottom;endArrow=block;edgeStyle=elbowEdgeStyle;elbow=vertical;curved=0;rounded=0;textOpacity=0;" parent="1" source="WuYdYey0Z6FS718gPj1q-6" target="WuYdYey0Z6FS718gPj1q-10" edge="1">
          <mxGeometry x="0.25" y="20" width="80" relative="1" as="geometry">
            <mxPoint x="-220" y="972" as="sourcePoint" />
            <mxPoint y="946" as="targetPoint" />
            <mxPoint as="offset" />
            <Array as="points">
              <mxPoint x="-710" y="950" />
              <mxPoint x="-710" y="980" />
              <mxPoint x="-690" y="980" />
              <mxPoint x="-670" y="950" />
              <mxPoint x="-580" y="940" />
              <mxPoint x="-280" y="690" />
              <mxPoint x="-90" y="991" />
              <mxPoint x="-240" y="911" />
              <mxPoint x="230" y="751" />
              <mxPoint x="150" y="881" />
              <mxPoint x="240" y="740" />
            </Array>
          </mxGeometry>
        </mxCell>
        <mxCell id="WuYdYey0Z6FS718gPj1q-34" value="dispatch" style="html=1;verticalAlign=bottom;endArrow=block;edgeStyle=elbowEdgeStyle;elbow=vertical;curved=0;rounded=0;textOpacity=0;" parent="1" source="WuYdYey0Z6FS718gPj1q-14" target="lCYEwEg9oiP1OCXS0-rL-26" edge="1">
          <mxGeometry x="0.25" y="20" width="80" relative="1" as="geometry">
            <mxPoint x="640" y="710" as="sourcePoint" />
            <mxPoint x="640" y="795" as="targetPoint" />
            <mxPoint as="offset" />
            <Array as="points">
              <mxPoint x="220" y="1050" />
              <mxPoint x="270" y="1000" />
              <mxPoint x="570" y="790" />
              <mxPoint x="640" y="755" />
              <mxPoint x="490" y="675" />
              <mxPoint x="960" y="515" />
              <mxPoint x="880" y="645" />
              <mxPoint x="970" y="504" />
            </Array>
          </mxGeometry>
        </mxCell>
        <mxCell id="WuYdYey0Z6FS718gPj1q-35" value="dispatch" style="html=1;verticalAlign=bottom;endArrow=block;edgeStyle=elbowEdgeStyle;elbow=vertical;curved=0;rounded=0;textOpacity=0;" parent="1" source="WuYdYey0Z6FS718gPj1q-14" target="WuYdYey0Z6FS718gPj1q-18" edge="1">
          <mxGeometry x="0.25" y="20" width="80" relative="1" as="geometry">
            <mxPoint x="800" y="980" as="sourcePoint" />
            <mxPoint x="750" y="900" as="targetPoint" />
            <mxPoint as="offset" />
            <Array as="points">
              <mxPoint x="535" y="1000" />
              <mxPoint x="780" y="900" />
              <mxPoint x="660" y="980" />
              <mxPoint x="510" y="900" />
              <mxPoint x="980" y="740" />
              <mxPoint x="900" y="870" />
              <mxPoint x="990" y="729" />
            </Array>
          </mxGeometry>
        </mxCell>
        <mxCell id="9LMU5q8Dn6a0NJVtVapk-3" value="" style="endArrow=block;dashed=1;endFill=0;endSize=12;html=1;rounded=0;exitX=0.5;exitY=0;exitDx=0;exitDy=0;" parent="1" source="lCYEwEg9oiP1OCXS0-rL-48" target="WuYdYey0Z6FS718gPj1q-2" edge="1">
          <mxGeometry width="160" relative="1" as="geometry">
            <mxPoint x="600" y="-400" as="sourcePoint" />
            <mxPoint x="-30" y="-260" as="targetPoint" />
            <Array as="points">
              <mxPoint x="365" y="-480" />
            </Array>
          </mxGeometry>
        </mxCell>
        <mxCell id="9LMU5q8Dn6a0NJVtVapk-13" value="dispatch" style="html=1;verticalAlign=bottom;endArrow=block;edgeStyle=elbowEdgeStyle;elbow=vertical;curved=0;rounded=0;textOpacity=0;exitX=0.49;exitY=1.146;exitDx=0;exitDy=0;exitPerimeter=0;" parent="1" source="yN8j2u117YADS8AMJBHa-5" target="WuYdYey0Z6FS718gPj1q-38" edge="1">
          <mxGeometry x="0.25" y="20" width="80" relative="1" as="geometry">
            <mxPoint x="900" y="-90" as="sourcePoint" />
            <mxPoint x="-420" y="910" as="targetPoint" />
            <mxPoint as="offset" />
            <Array as="points">
              <mxPoint x="150" y="1220" />
              <mxPoint x="890" y="-100" />
              <mxPoint x="330" y="120" />
              <mxPoint x="180" y="108" />
              <mxPoint x="-530" y="-40" />
              <mxPoint x="-550" y="570" />
              <mxPoint x="950" y="-580" />
              <mxPoint x="470" y="-590" />
              <mxPoint x="790" y="-540" />
              <mxPoint x="1170" y="39" />
              <mxPoint x="1390" y="1260" />
              <mxPoint x="1420" y="1280" />
              <mxPoint x="120" y="1280" />
              <mxPoint x="1470" y="970" />
              <mxPoint x="1470" y="30" />
              <mxPoint x="1230" y="700" />
              <mxPoint x="-120" y="1120" />
              <mxPoint x="1460" y="1120" />
              <mxPoint x="150" y="1160" />
              <mxPoint x="1340" y="1180" />
              <mxPoint x="1340" y="970" />
              <mxPoint x="1340" y="210" />
              <mxPoint x="1220" y="230" />
              <mxPoint x="1240" y="1240" />
              <mxPoint x="1600" y="1240" />
              <mxPoint x="1257" y="56" />
              <mxPoint x="1107" y="-24" />
              <mxPoint x="1577" y="-184" />
              <mxPoint x="1497" y="-54" />
              <mxPoint x="1587" y="-195" />
            </Array>
          </mxGeometry>
        </mxCell>
        <mxCell id="9LMU5q8Dn6a0NJVtVapk-14" value="dispatch" style="html=1;verticalAlign=bottom;endArrow=block;edgeStyle=elbowEdgeStyle;elbow=vertical;curved=0;rounded=0;textOpacity=0;exitX=0.33;exitY=1.146;exitDx=0;exitDy=0;exitPerimeter=0;" parent="1" source="yN8j2u117YADS8AMJBHa-5" target="WuYdYey0Z6FS718gPj1q-14" edge="1">
          <mxGeometry x="0.0244" y="37" width="80" relative="1" as="geometry">
            <mxPoint x="1370" y="530" as="sourcePoint" />
            <mxPoint x="730" y="740" as="targetPoint" />
            <mxPoint as="offset" />
            <Array as="points">
              <mxPoint x="960" y="850" />
              <mxPoint x="1120" y="390" />
              <mxPoint x="1250" y="20" />
              <mxPoint x="1120" y="380" />
              <mxPoint x="1087" y="630" />
              <mxPoint x="1557" y="470" />
              <mxPoint x="1477" y="600" />
              <mxPoint x="1567" y="459" />
            </Array>
          </mxGeometry>
        </mxCell>
        <mxCell id="izIf3tRvV_jU_N7sfZag-8" value="" style="endArrow=block;endFill=1;html=1;edgeStyle=orthogonalEdgeStyle;align=left;verticalAlign=top;rounded=0;" parent="1" source="WuYdYey0Z6FS718gPj1q-1" target="WuYdYey0Z6FS718gPj1q-2" edge="1">
          <mxGeometry x="-0.2941" y="-100" relative="1" as="geometry">
            <mxPoint x="140" y="-430" as="sourcePoint" />
            <mxPoint x="300" y="-430" as="targetPoint" />
            <mxPoint x="-1" as="offset" />
          </mxGeometry>
        </mxCell>
        <mxCell id="izIf3tRvV_jU_N7sfZag-10" value="" style="endArrow=block;endFill=1;html=1;edgeStyle=orthogonalEdgeStyle;align=left;verticalAlign=top;rounded=0;" parent="1" source="lCYEwEg9oiP1OCXS0-rL-48" target="lCYEwEg9oiP1OCXS0-rL-43" edge="1">
          <mxGeometry x="-0.5322" y="62" relative="1" as="geometry">
            <mxPoint x="-170" y="-621" as="sourcePoint" />
            <mxPoint x="-150" y="-260" as="targetPoint" />
            <mxPoint as="offset" />
          </mxGeometry>
        </mxCell>
        <mxCell id="izIf3tRvV_jU_N7sfZag-14" value="" style="endArrow=block;dashed=1;endFill=0;endSize=12;html=1;rounded=0;" parent="1" source="yN8j2u117YADS8AMJBHa-2" target="WuYdYey0Z6FS718gPj1q-2" edge="1">
          <mxGeometry width="160" relative="1" as="geometry">
            <mxPoint x="70" y="-140" as="sourcePoint" />
            <mxPoint x="230" y="-140" as="targetPoint" />
            <Array as="points">
              <mxPoint x="1530" y="-620" />
            </Array>
          </mxGeometry>
        </mxCell>
        <mxCell id="tL8rUceiAdDFCAcT1S33-10" value="ChoosePointView" style="swimlane;fontStyle=1;align=center;verticalAlign=top;childLayout=stackLayout;horizontal=1;startSize=26;horizontalStack=0;resizeParent=1;resizeParentMax=0;resizeLast=0;collapsible=1;marginBottom=0;whiteSpace=wrap;html=1;fillColor=#f8cecc;strokeColor=#b85450;" vertex="1" parent="1">
          <mxGeometry x="910" y="10" width="220" height="60" as="geometry" />
        </mxCell>
        <mxCell id="tL8rUceiAdDFCAcT1S33-11" value="- graphController: GraphController" style="text;strokeColor=none;fillColor=none;align=left;verticalAlign=top;spacingLeft=4;spacingRight=4;overflow=hidden;rotatable=0;points=[[0,0.5],[1,0.5]];portConstraint=eastwest;whiteSpace=wrap;html=1;" vertex="1" parent="tL8rUceiAdDFCAcT1S33-10">
          <mxGeometry y="26" width="220" height="26" as="geometry" />
        </mxCell>
        <mxCell id="tL8rUceiAdDFCAcT1S33-12" value="" style="line;strokeWidth=1;fillColor=none;align=left;verticalAlign=middle;spacingTop=-1;spacingLeft=3;spacingRight=3;rotatable=0;labelPosition=right;points=[];portConstraint=eastwest;strokeColor=inherit;" vertex="1" parent="tL8rUceiAdDFCAcT1S33-10">
          <mxGeometry y="52" width="220" height="8" as="geometry" />
        </mxCell>
        <mxCell id="tL8rUceiAdDFCAcT1S33-22" value="ChooseTypeView" style="swimlane;fontStyle=1;align=center;verticalAlign=top;childLayout=stackLayout;horizontal=1;startSize=26;horizontalStack=0;resizeParent=1;resizeParentMax=0;resizeLast=0;collapsible=1;marginBottom=0;whiteSpace=wrap;html=1;fillColor=#f8cecc;strokeColor=#b85450;" vertex="1" parent="1">
          <mxGeometry x="1140" y="10" width="220" height="60" as="geometry" />
        </mxCell>
        <mxCell id="tL8rUceiAdDFCAcT1S33-23" value="- graphController: GraphController" style="text;strokeColor=none;fillColor=none;align=left;verticalAlign=top;spacingLeft=4;spacingRight=4;overflow=hidden;rotatable=0;points=[[0,0.5],[1,0.5]];portConstraint=eastwest;whiteSpace=wrap;html=1;" vertex="1" parent="tL8rUceiAdDFCAcT1S33-22">
          <mxGeometry y="26" width="220" height="26" as="geometry" />
        </mxCell>
        <mxCell id="tL8rUceiAdDFCAcT1S33-24" value="" style="line;strokeWidth=1;fillColor=none;align=left;verticalAlign=middle;spacingTop=-1;spacingLeft=3;spacingRight=3;rotatable=0;labelPosition=right;points=[];portConstraint=eastwest;strokeColor=inherit;" vertex="1" parent="tL8rUceiAdDFCAcT1S33-22">
          <mxGeometry y="52" width="220" height="8" as="geometry" />
        </mxCell>
        <mxCell id="tL8rUceiAdDFCAcT1S33-25" value="" style="edgeStyle=orthogonalEdgeStyle;rounded=0;orthogonalLoop=1;jettySize=auto;html=1;" edge="1" parent="1" source="lCYEwEg9oiP1OCXS0-rL-48" target="tL8rUceiAdDFCAcT1S33-10">
          <mxGeometry relative="1" as="geometry">
            <Array as="points">
              <mxPoint x="360" y="-20" />
              <mxPoint x="1020" y="-20" />
            </Array>
            <mxPoint x="540" y="-160" as="sourcePoint" />
            <mxPoint x="768" y="20" as="targetPoint" />
          </mxGeometry>
        </mxCell>
        <mxCell id="tL8rUceiAdDFCAcT1S33-26" value="" style="edgeStyle=orthogonalEdgeStyle;rounded=0;orthogonalLoop=1;jettySize=auto;html=1;entryX=0.5;entryY=0;entryDx=0;entryDy=0;" edge="1" parent="1" source="lCYEwEg9oiP1OCXS0-rL-48" target="tL8rUceiAdDFCAcT1S33-22">
          <mxGeometry relative="1" as="geometry">
            <Array as="points">
              <mxPoint x="360" y="-20" />
              <mxPoint x="1250" y="-20" />
            </Array>
            <mxPoint x="370" y="-181" as="sourcePoint" />
            <mxPoint x="1030" y="20" as="targetPoint" />
          </mxGeometry>
        </mxCell>
        <mxCell id="tL8rUceiAdDFCAcT1S33-31" value="DirectedGraph" style="swimlane;fontStyle=1;align=center;verticalAlign=top;childLayout=stackLayout;horizontal=1;startSize=26;horizontalStack=0;resizeParent=1;resizeParentMax=0;resizeLast=0;collapsible=1;marginBottom=0;whiteSpace=wrap;html=1;fillColor=#f8cecc;strokeColor=#b85450;" vertex="1" parent="1">
          <mxGeometry x="-1460" y="160" width="345" height="190" as="geometry" />
        </mxCell>
        <mxCell id="izIf3tRvV_jU_N7sfZag-15" value="- instance:&amp;nbsp;DirectedGraph" style="text;strokeColor=none;fillColor=none;align=left;verticalAlign=top;spacingLeft=4;spacingRight=4;overflow=hidden;rotatable=0;points=[[0,0.5],[1,0.5]];portConstraint=eastwest;whiteSpace=wrap;html=1;" parent="tL8rUceiAdDFCAcT1S33-31" vertex="1">
          <mxGeometry y="26" width="345" height="26" as="geometry" />
        </mxCell>
        <mxCell id="tL8rUceiAdDFCAcT1S33-32" value="" style="line;strokeWidth=1;fillColor=none;align=left;verticalAlign=middle;spacingTop=-1;spacingLeft=3;spacingRight=3;rotatable=0;labelPosition=right;points=[];portConstraint=eastwest;strokeColor=inherit;" vertex="1" parent="tL8rUceiAdDFCAcT1S33-31">
          <mxGeometry y="52" width="345" height="8" as="geometry" />
        </mxCell>
        <mxCell id="FBMKChIWelxDI7sZAd13-1" value="+ &amp;lt;&amp;lt;static&amp;gt;&amp;gt; getInstance(): Graph" style="text;strokeColor=none;fillColor=none;align=left;verticalAlign=top;spacingLeft=4;spacingRight=4;overflow=hidden;rotatable=0;points=[[0,0.5],[1,0.5]];portConstraint=eastwest;whiteSpace=wrap;html=1;" parent="tL8rUceiAdDFCAcT1S33-31" vertex="1">
          <mxGeometry y="60" width="345" height="26" as="geometry" />
        </mxCell>
        <mxCell id="tL8rUceiAdDFCAcT1S33-42" value="+ countEdges(ArrayList&amp;lt;Integer&amp;gt; nodeToGetEdge&lt;span style=&quot;background-color: initial;&quot;&gt;): int&lt;/span&gt;" style="text;strokeColor=none;fillColor=none;align=left;verticalAlign=top;spacingLeft=4;spacingRight=4;overflow=hidden;rotatable=0;points=[[0,0.5],[1,0.5]];portConstraint=eastwest;whiteSpace=wrap;html=1;" vertex="1" parent="tL8rUceiAdDFCAcT1S33-31">
          <mxGeometry y="86" width="345" height="26" as="geometry" />
        </mxCell>
        <mxCell id="tL8rUceiAdDFCAcT1S33-46" value="+ setAdjancyMatrix(&lt;span style=&quot;background-color: initial;&quot;&gt;): void&lt;/span&gt;" style="text;strokeColor=none;fillColor=none;align=left;verticalAlign=top;spacingLeft=4;spacingRight=4;overflow=hidden;rotatable=0;points=[[0,0.5],[1,0.5]];portConstraint=eastwest;whiteSpace=wrap;html=1;" vertex="1" parent="tL8rUceiAdDFCAcT1S33-31">
          <mxGeometry y="112" width="345" height="26" as="geometry" />
        </mxCell>
        <mxCell id="tL8rUceiAdDFCAcT1S33-48" value="+ getEdges(ArrayList&amp;lt;Integer&amp;gt; nodeToGetEdge&lt;span style=&quot;background-color: initial;&quot;&gt;): int[]&lt;/span&gt;" style="text;strokeColor=none;fillColor=none;align=left;verticalAlign=top;spacingLeft=4;spacingRight=4;overflow=hidden;rotatable=0;points=[[0,0.5],[1,0.5]];portConstraint=eastwest;whiteSpace=wrap;html=1;" vertex="1" parent="tL8rUceiAdDFCAcT1S33-31">
          <mxGeometry y="138" width="345" height="26" as="geometry" />
        </mxCell>
        <mxCell id="tL8rUceiAdDFCAcT1S33-49" value="+&amp;nbsp;addEdge&lt;span style=&quot;background-color: initial;&quot;&gt;(Edge edge): void&lt;/span&gt;" style="text;strokeColor=none;fillColor=none;align=left;verticalAlign=top;spacingLeft=4;spacingRight=4;overflow=hidden;rotatable=0;points=[[0,0.5],[1,0.5]];portConstraint=eastwest;whiteSpace=wrap;html=1;" vertex="1" parent="tL8rUceiAdDFCAcT1S33-31">
          <mxGeometry y="164" width="345" height="26" as="geometry" />
        </mxCell>
        <mxCell id="tL8rUceiAdDFCAcT1S33-35" value="" style="endArrow=block;endSize=16;endFill=0;html=1;rounded=0;" edge="1" parent="1" source="tL8rUceiAdDFCAcT1S33-50" target="lCYEwEg9oiP1OCXS0-rL-14">
          <mxGeometry x="0.25" y="40" width="160" relative="1" as="geometry">
            <mxPoint x="-1115" y="545.0736842105262" as="sourcePoint" />
            <mxPoint x="-1060" y="430" as="targetPoint" />
            <mxPoint as="offset" />
          </mxGeometry>
        </mxCell>
        <mxCell id="tL8rUceiAdDFCAcT1S33-36" value="" style="endArrow=block;endSize=16;endFill=0;html=1;rounded=0;" edge="1" parent="1" source="tL8rUceiAdDFCAcT1S33-31" target="lCYEwEg9oiP1OCXS0-rL-14">
          <mxGeometry x="0.25" y="40" width="160" relative="1" as="geometry">
            <mxPoint x="-1190" y="370" as="sourcePoint" />
            <mxPoint x="-1030" y="370" as="targetPoint" />
            <mxPoint as="offset" />
          </mxGeometry>
        </mxCell>
        <mxCell id="tL8rUceiAdDFCAcT1S33-50" value="UnDirectedGraph" style="swimlane;fontStyle=1;align=center;verticalAlign=top;childLayout=stackLayout;horizontal=1;startSize=26;horizontalStack=0;resizeParent=1;resizeParentMax=0;resizeLast=0;collapsible=1;marginBottom=0;whiteSpace=wrap;html=1;fillColor=#f8cecc;strokeColor=#b85450;" vertex="1" parent="1">
          <mxGeometry x="-1470" y="460" width="345" height="190" as="geometry" />
        </mxCell>
        <mxCell id="tL8rUceiAdDFCAcT1S33-51" value="- instance:&amp;nbsp;UnDirectedGraph" style="text;strokeColor=none;fillColor=none;align=left;verticalAlign=top;spacingLeft=4;spacingRight=4;overflow=hidden;rotatable=0;points=[[0,0.5],[1,0.5]];portConstraint=eastwest;whiteSpace=wrap;html=1;" vertex="1" parent="tL8rUceiAdDFCAcT1S33-50">
          <mxGeometry y="26" width="345" height="26" as="geometry" />
        </mxCell>
        <mxCell id="tL8rUceiAdDFCAcT1S33-52" value="" style="line;strokeWidth=1;fillColor=none;align=left;verticalAlign=middle;spacingTop=-1;spacingLeft=3;spacingRight=3;rotatable=0;labelPosition=right;points=[];portConstraint=eastwest;strokeColor=inherit;" vertex="1" parent="tL8rUceiAdDFCAcT1S33-50">
          <mxGeometry y="52" width="345" height="8" as="geometry" />
        </mxCell>
        <mxCell id="tL8rUceiAdDFCAcT1S33-53" value="+ &amp;lt;&amp;lt;static&amp;gt;&amp;gt; getInstance(): Graph" style="text;strokeColor=none;fillColor=none;align=left;verticalAlign=top;spacingLeft=4;spacingRight=4;overflow=hidden;rotatable=0;points=[[0,0.5],[1,0.5]];portConstraint=eastwest;whiteSpace=wrap;html=1;" vertex="1" parent="tL8rUceiAdDFCAcT1S33-50">
          <mxGeometry y="60" width="345" height="26" as="geometry" />
        </mxCell>
        <mxCell id="tL8rUceiAdDFCAcT1S33-54" value="+ countEdges(ArrayList&amp;lt;Integer&amp;gt; nodeToGetEdge&lt;span style=&quot;background-color: initial;&quot;&gt;): int&lt;/span&gt;" style="text;strokeColor=none;fillColor=none;align=left;verticalAlign=top;spacingLeft=4;spacingRight=4;overflow=hidden;rotatable=0;points=[[0,0.5],[1,0.5]];portConstraint=eastwest;whiteSpace=wrap;html=1;" vertex="1" parent="tL8rUceiAdDFCAcT1S33-50">
          <mxGeometry y="86" width="345" height="26" as="geometry" />
        </mxCell>
        <mxCell id="tL8rUceiAdDFCAcT1S33-55" value="+ setAdjancyMatrix(&lt;span style=&quot;background-color: initial;&quot;&gt;): void&lt;/span&gt;" style="text;strokeColor=none;fillColor=none;align=left;verticalAlign=top;spacingLeft=4;spacingRight=4;overflow=hidden;rotatable=0;points=[[0,0.5],[1,0.5]];portConstraint=eastwest;whiteSpace=wrap;html=1;" vertex="1" parent="tL8rUceiAdDFCAcT1S33-50">
          <mxGeometry y="112" width="345" height="26" as="geometry" />
        </mxCell>
        <mxCell id="tL8rUceiAdDFCAcT1S33-56" value="+ getEdges(ArrayList&amp;lt;Integer&amp;gt; nodeToGetEdge&lt;span style=&quot;background-color: initial;&quot;&gt;): int[]&lt;/span&gt;" style="text;strokeColor=none;fillColor=none;align=left;verticalAlign=top;spacingLeft=4;spacingRight=4;overflow=hidden;rotatable=0;points=[[0,0.5],[1,0.5]];portConstraint=eastwest;whiteSpace=wrap;html=1;" vertex="1" parent="tL8rUceiAdDFCAcT1S33-50">
          <mxGeometry y="138" width="345" height="26" as="geometry" />
        </mxCell>
        <mxCell id="tL8rUceiAdDFCAcT1S33-57" value="+&amp;nbsp;addEdge&lt;span style=&quot;background-color: initial;&quot;&gt;(Edge edge): void&lt;/span&gt;" style="text;strokeColor=none;fillColor=none;align=left;verticalAlign=top;spacingLeft=4;spacingRight=4;overflow=hidden;rotatable=0;points=[[0,0.5],[1,0.5]];portConstraint=eastwest;whiteSpace=wrap;html=1;" vertex="1" parent="tL8rUceiAdDFCAcT1S33-50">
          <mxGeometry y="164" width="345" height="26" as="geometry" />
        </mxCell>
        <mxCell id="tL8rUceiAdDFCAcT1S33-58" value="" style="endArrow=block;endFill=1;html=1;edgeStyle=orthogonalEdgeStyle;align=left;verticalAlign=top;rounded=0;exitX=0.5;exitY=0;exitDx=0;exitDy=0;" edge="1" parent="1" source="tL8rUceiAdDFCAcT1S33-31" target="tL8rUceiAdDFCAcT1S33-31">
          <mxGeometry x="-0.6024" y="32" relative="1" as="geometry">
            <mxPoint x="-1100.08" y="129.92000000000002" as="sourcePoint" />
            <mxPoint x="-1007.0799999999999" y="79.92" as="targetPoint" />
            <Array as="points">
              <mxPoint x="-1287" y="90" />
              <mxPoint x="-1500" y="90" />
              <mxPoint x="-1500" y="180" />
            </Array>
            <mxPoint x="2" y="11" as="offset" />
          </mxGeometry>
        </mxCell>
        <mxCell id="tL8rUceiAdDFCAcT1S33-59" value="" style="endArrow=block;endFill=1;html=1;edgeStyle=orthogonalEdgeStyle;align=left;verticalAlign=top;rounded=0;exitX=0.5;exitY=0;exitDx=0;exitDy=0;entryX=0.002;entryY=0.09;entryDx=0;entryDy=0;entryPerimeter=0;" edge="1" parent="1" source="tL8rUceiAdDFCAcT1S33-50" target="tL8rUceiAdDFCAcT1S33-50">
          <mxGeometry x="-0.6024" y="32" relative="1" as="geometry">
            <mxPoint x="-1317.08" y="449.92" as="sourcePoint" />
            <mxPoint x="-1490.08" y="544.9200000000001" as="targetPoint" />
            <Array as="points">
              <mxPoint x="-1297" y="380" />
              <mxPoint x="-1530" y="380" />
              <mxPoint x="-1530" y="477" />
            </Array>
            <mxPoint x="2" y="11" as="offset" />
          </mxGeometry>
        </mxCell>
        <mxCell id="QEKuKGC_djsltP4IG3vr-1" value="" style="endArrow=block;dashed=1;endFill=0;endSize=12;html=1;rounded=0;" edge="1" parent="1" source="tL8rUceiAdDFCAcT1S33-10" target="WuYdYey0Z6FS718gPj1q-2">
          <mxGeometry width="160" relative="1" as="geometry">
            <mxPoint x="1377" y="90" as="sourcePoint" />
            <mxPoint x="400" y="-540" as="targetPoint" />
            <Array as="points" />
          </mxGeometry>
        </mxCell>
        <mxCell id="QEKuKGC_djsltP4IG3vr-2" value="" style="endArrow=block;dashed=1;endFill=0;endSize=12;html=1;rounded=0;exitX=0.5;exitY=0;exitDx=0;exitDy=0;" edge="1" parent="1" source="tL8rUceiAdDFCAcT1S33-22" target="WuYdYey0Z6FS718gPj1q-2">
          <mxGeometry width="160" relative="1" as="geometry">
            <mxPoint x="1130" y="-9" as="sourcePoint" />
            <mxPoint x="544" y="-600" as="targetPoint" />
            <Array as="points" />
          </mxGeometry>
        </mxCell>
        <mxCell id="QEKuKGC_djsltP4IG3vr-3" value="NotifyController" style="swimlane;fontStyle=1;align=center;verticalAlign=top;childLayout=stackLayout;horizontal=1;startSize=26;horizontalStack=0;resizeParent=1;resizeParentMax=0;resizeLast=0;collapsible=1;marginBottom=0;whiteSpace=wrap;html=1;fillColor=#f8cecc;strokeColor=#b85450;" vertex="1" parent="1">
          <mxGeometry x="540" y="310" width="470" height="138" as="geometry" />
        </mxCell>
        <mxCell id="QEKuKGC_djsltP4IG3vr-5" value="- view: NotifyView" style="text;strokeColor=none;fillColor=none;align=left;verticalAlign=top;spacingLeft=4;spacingRight=4;overflow=hidden;rotatable=0;points=[[0,0.5],[1,0.5]];portConstraint=eastwest;whiteSpace=wrap;html=1;" vertex="1" parent="QEKuKGC_djsltP4IG3vr-3">
          <mxGeometry y="26" width="470" height="26" as="geometry" />
        </mxCell>
        <mxCell id="QEKuKGC_djsltP4IG3vr-6" value="" style="line;strokeWidth=1;fillColor=none;align=left;verticalAlign=middle;spacingTop=-1;spacingLeft=3;spacingRight=3;rotatable=0;labelPosition=right;points=[];portConstraint=eastwest;strokeColor=inherit;" vertex="1" parent="QEKuKGC_djsltP4IG3vr-3">
          <mxGeometry y="52" width="470" height="8" as="geometry" />
        </mxCell>
        <mxCell id="QEKuKGC_djsltP4IG3vr-8" value="+&amp;nbsp;setPathNotify(Vertex[] s, Vertex st, Vertex ds, int pathCost, boolean neagtiveCycle" style="text;strokeColor=none;fillColor=none;align=left;verticalAlign=top;spacingLeft=4;spacingRight=4;overflow=hidden;rotatable=0;points=[[0,0.5],[1,0.5]];portConstraint=eastwest;whiteSpace=wrap;html=1;" vertex="1" parent="QEKuKGC_djsltP4IG3vr-3">
          <mxGeometry y="60" width="470" height="26" as="geometry" />
        </mxCell>
        <mxCell id="QEKuKGC_djsltP4IG3vr-9" value="- removeNotify(): void" style="text;strokeColor=none;fillColor=none;align=left;verticalAlign=top;spacingLeft=4;spacingRight=4;overflow=hidden;rotatable=0;points=[[0,0.5],[1,0.5]];portConstraint=eastwest;whiteSpace=wrap;html=1;" vertex="1" parent="QEKuKGC_djsltP4IG3vr-3">
          <mxGeometry y="86" width="470" height="26" as="geometry" />
        </mxCell>
        <mxCell id="QEKuKGC_djsltP4IG3vr-11" value="-&amp;nbsp;setConnectedNotify&lt;span style=&quot;background-color: initial;&quot;&gt;(boolean connected): void&lt;/span&gt;" style="text;strokeColor=none;fillColor=none;align=left;verticalAlign=top;spacingLeft=4;spacingRight=4;overflow=hidden;rotatable=0;points=[[0,0.5],[1,0.5]];portConstraint=eastwest;whiteSpace=wrap;html=1;" vertex="1" parent="QEKuKGC_djsltP4IG3vr-3">
          <mxGeometry y="112" width="470" height="26" as="geometry" />
        </mxCell>
        <mxCell id="QEKuKGC_djsltP4IG3vr-12" value="dispatch" style="html=1;verticalAlign=bottom;endArrow=block;edgeStyle=elbowEdgeStyle;elbow=vertical;curved=0;rounded=0;textOpacity=0;" edge="1" parent="1" source="QEKuKGC_djsltP4IG3vr-3" target="IncMXRNsBareLpS9UFTI-18">
          <mxGeometry x="0.25" y="20" width="80" relative="1" as="geometry">
            <mxPoint x="240" y="290" as="sourcePoint" />
            <mxPoint x="480" y="290" as="targetPoint" />
            <mxPoint as="offset" />
            <Array as="points">
              <mxPoint x="790" y="210" />
              <mxPoint x="340" y="290" />
              <mxPoint x="1210" y="190" />
              <mxPoint x="1120" y="130" />
              <mxPoint x="940" y="100" />
              <mxPoint x="1350" y="60" />
            </Array>
          </mxGeometry>
        </mxCell>
      </root>
    </mxGraphModel>
  </diagram>
  <diagram id="sVncIdphCHsNY9BFrPPg" name="Trang-2">
    <mxGraphModel dx="1290" dy="541" grid="1" gridSize="10" guides="1" tooltips="1" connect="1" arrows="1" fold="1" page="1" pageScale="1" pageWidth="827" pageHeight="1169" math="0" shadow="0">
      <root>
        <mxCell id="0" />
        <mxCell id="1" parent="0" />
      </root>
    </mxGraphModel>
  </diagram>
  <diagram id="Vw0JTdpLXx9ORPqJTfJN" name="Trang-3">
    <mxGraphModel dx="1290" dy="541" grid="1" gridSize="10" guides="1" tooltips="1" connect="1" arrows="1" fold="1" page="1" pageScale="1" pageWidth="827" pageHeight="1169" math="0" shadow="0">
      <root>
        <mxCell id="0" />
        <mxCell id="1" parent="0" />
      </root>
    </mxGraphModel>
  </diagram>
</mxfile>
